<?xml version="1.0" encoding="UTF-8"?>
<svg width="935px" height="148px" viewBox="0 0 935 148" version="1.1" xmlns="http://www.w3.org/2000/svg" xmlns:xlink="http://www.w3.org/1999/xlink">
    <!-- Generator: Sketch 46.2 (44496) - http://www.bohemiancoding.com/sketch -->
    <title>Delay</title>
    <desc>Created with Sketch.</desc>
    <defs>
        <rect id="path-1" x="0" y="0" width="122" height="56" rx="8"></rect>
    </defs>
    <g id="Page-1" stroke="none" stroke-width="1" fill="none" fill-rule="evenodd">
        <g id="Delay" transform="translate(3.000000, 3.000000)">
            <g id="Input-node">
                <rect id="Rectangle-1" stroke="#000000" x="-0.5" y="-0.5" width="123" height="57" rx="8"></rect>
                <path d="M30,21 L33.66,21 L33.66,35.02 L30,35.02 L30,21 Z M45.96,21 L49.36,21 L49.36,35.02 L46.16,35.02 L39.8,26.64 L39.8,35.02 L36.38,35.02 L36.38,21 L39.6,21 L45.98,29.44 L45.96,21 Z M62.42,22.29 C63.4066716,23.1500043 63.9,24.3599922 63.9,25.92 C63.9,27.5733416 63.4066716,28.8566621 62.42,29.77 C61.4333284,30.6833379 60.0466756,31.14 58.26,31.14 L55.76,31.14 L55.76,35.02 L52.1,35.02 L52.1,21 L58.26,21 C60.0466756,21 61.4333284,21.4299957 62.42,22.29 Z M59.81,27.66 C60.2166687,27.2866648 60.42,26.7466702 60.42,26.04 C60.42,25.3599966 60.2166687,24.8366685 59.81,24.47 C59.4033313,24.1033315 58.8266704,23.92 58.08,23.92 L55.76,23.92 L55.76,28.22 L58.08,28.22 C58.8266704,28.22 59.4033313,28.0333352 59.81,27.66 Z M69.9,31.36 C70.4200026,31.893336 71.079996,32.16 71.88,32.16 C72.6666706,32.16 73.3033309,31.8966693 73.79,31.37 C74.2766691,30.8433307 74.52,30.1333378 74.52,29.24 L74.52,21 L78.18,21 L78.18,29.24 C78.18,30.4533394 77.9233359,31.5166621 77.41,32.43 C76.8966641,33.3433379 76.1633381,34.0466642 75.21,34.54 C74.2566619,35.0333358 73.1400064,35.28 71.86,35.28 C70.5799936,35.28 69.4566715,35.0333358 68.49,34.54 C67.5233285,34.0466642 66.7766693,33.3433379 66.25,32.43 C65.7233307,31.5166621 65.46,30.4533394 65.46,29.24 L65.46,21 L69.12,21 L69.12,29.24 C69.12,30.1200044 69.3799974,30.826664 69.9,31.36 Z M79.46,21 L91.48,21 L91.48,24.02 L87.28,24.02 L87.28,35.02 L83.62,35.02 L83.62,24.02 L79.46,24.02 L79.46,21 Z" id="INPUT" fill="#1B2B34"></path>
            </g>
            <g id="Gain-node" transform="translate(202.000000, 0.000000)">
                <rect id="Rectangle-1" stroke="#000000" x="-0.5" y="-0.5" width="123" height="57" rx="8"></rect>
                <path d="M46.18,28.08 L49.34,28.08 L49.34,33.66 C48.5933296,34.2066694 47.6766721,34.6499983 46.59,34.99 C45.5033279,35.3300017 44.4733382,35.5 43.5,35.5 C42.0866596,35.5 40.8100057,35.1833365 39.67,34.55 C38.5299943,33.9166635 37.6333366,33.0466722 36.98,31.94 C36.3266634,30.8333278 36,29.5933402 36,28.22 C36,26.8599932 36.3366633,25.6300055 37.01,24.53 C37.6833367,23.4299945 38.6099941,22.5666698 39.79,21.94 C40.9700059,21.3133302 42.2866594,21 43.74,21 C44.7800052,21 45.8199948,21.1899981 46.86,21.57 C47.9000052,21.9500019 48.7799964,22.4599968 49.5,23.1 L47.42,25.66 C46.9133308,25.1799976 46.3300033,24.8000014 45.67,24.52 C45.0099967,24.2399986 44.3600032,24.1 43.72,24.1 C42.9733296,24.1 42.300003,24.2799982 41.7,24.64 C41.099997,25.0000018 40.6266684,25.4933302 40.28,26.12 C39.9333316,26.7466698 39.76,27.4466628 39.76,28.22 C39.76,29.0066706 39.9333316,29.7166635 40.28,30.35 C40.6266684,30.9833365 41.1066636,31.4799982 41.72,31.84 C42.3333364,32.2000018 43.0133296,32.38 43.76,32.38 C44.4666702,32.38 45.2733288,32.1533356 46.18,31.7 L46.18,28.08 Z M62.06,35.24 L61.1,32.76 L55.04,32.76 L54.06,35.24 L50.3,35.24 L56.32,21.22 L60.08,21.22 L65.96,35.24 L62.06,35.24 Z M56.14,29.96 L60.02,29.96 L58.1,24.96 L56.14,29.96 Z M67.22,21.22 L70.88,21.22 L70.88,35.24 L67.22,35.24 L67.22,21.22 Z M83.18,21.22 L86.58,21.22 L86.58,35.24 L83.38,35.24 L77.02,26.86 L77.02,35.24 L73.6,35.24 L73.6,21.22 L76.82,21.22 L83.2,29.66 L83.18,21.22 Z" id="GAIN" fill="#1B2B34"></path>
            </g>
            <g id="Output-node" transform="translate(807.000000, 1.000000)">
                <rect id="Rectangle-1" stroke="#000000" x="-0.5" y="-0.5" width="123" height="57" rx="8"></rect>
                <path d="M30.45,21.94 C31.6033391,22.5666698 32.5099967,23.4266612 33.17,24.52 C33.8300033,25.6133388 34.16,26.8399932 34.16,28.2 C34.16,29.5733402 33.8300033,30.8133278 33.17,31.92 C32.5099967,33.0266722 31.6033391,33.8999968 30.45,34.54 C29.2966609,35.1800032 28.0066738,35.5 26.58,35.5 C25.1533262,35.5 23.8633391,35.1833365 22.71,34.55 C21.5566609,33.9166635 20.6500033,33.0433389 19.99,31.93 C19.3299967,30.8166611 19,29.5733402 19,28.2 C19,26.8399932 19.3299967,25.6133388 19.99,24.52 C20.6500033,23.4266612 21.5566609,22.5666698 22.71,21.94 C23.8633391,21.3133302 25.1533262,21 26.58,21 C28.0066738,21 29.2966609,21.3133302 30.45,21.94 Z M24.69,24.64 C24.0966637,25.0000018 23.6266684,25.4966635 23.28,26.13 C22.9333316,26.7633365 22.76,27.4599962 22.76,28.22 C22.76,28.9933372 22.9366649,29.6966635 23.29,30.33 C23.6433351,30.9633365 24.1133304,31.4633315 24.7,31.83 C25.2866696,32.1966685 25.9266632,32.38 26.62,32.38 C27.3133368,32.38 27.9499971,32.1966685 28.53,31.83 C29.1100029,31.4633315 29.566665,30.9633365 29.9,30.33 C30.233335,29.6966635 30.4,28.9933372 30.4,28.22 C30.4,27.4599962 30.233335,26.7633365 29.9,26.13 C29.566665,25.4966635 29.1100029,25.0000018 28.53,24.64 C27.9499971,24.2799982 27.3133368,24.1 26.62,24.1 C25.9266632,24.1 25.2833363,24.2799982 24.69,24.64 Z M40.18,31.58 C40.7000026,32.113336 41.359996,32.38 42.16,32.38 C42.9466706,32.38 43.5833309,32.1166693 44.07,31.59 C44.5566691,31.0633307 44.8,30.3533378 44.8,29.46 L44.8,21.22 L48.46,21.22 L48.46,29.46 C48.46,30.6733394 48.2033359,31.7366621 47.69,32.65 C47.1766641,33.5633379 46.4433381,34.2666642 45.49,34.76 C44.5366619,35.2533358 43.4200064,35.5 42.14,35.5 C40.8599936,35.5 39.7366715,35.2533358 38.77,34.76 C37.8033285,34.2666642 37.0566693,33.5633379 36.53,32.65 C36.0033307,31.7366621 35.74,30.6733394 35.74,29.46 L35.74,21.22 L39.4,21.22 L39.4,29.46 C39.4,30.3400044 39.6599974,31.046664 40.18,31.58 Z M49.74,21.22 L61.76,21.22 L61.76,24.24 L57.56,24.24 L57.56,35.24 L53.9,35.24 L53.9,24.24 L49.74,24.24 L49.74,21.22 Z M73.56,22.51 C74.5466716,23.3700043 75.04,24.5799922 75.04,26.14 C75.04,27.7933416 74.5466716,29.0766621 73.56,29.99 C72.5733284,30.9033379 71.1866756,31.36 69.4,31.36 L66.9,31.36 L66.9,35.24 L63.24,35.24 L63.24,21.22 L69.4,21.22 C71.1866756,21.22 72.5733284,21.6499957 73.56,22.51 Z M70.95,27.88 C71.3566687,27.5066648 71.56,26.9666702 71.56,26.26 C71.56,25.5799966 71.3566687,25.0566685 70.95,24.69 C70.5433313,24.3233315 69.9666704,24.14 69.22,24.14 L66.9,24.14 L66.9,28.44 L69.22,28.44 C69.9666704,28.44 70.5433313,28.2533352 70.95,27.88 Z M81.04,31.58 C81.5600026,32.113336 82.219996,32.38 83.02,32.38 C83.8066706,32.38 84.4433309,32.1166693 84.93,31.59 C85.4166691,31.0633307 85.66,30.3533378 85.66,29.46 L85.66,21.22 L89.32,21.22 L89.32,29.46 C89.32,30.6733394 89.0633359,31.7366621 88.55,32.65 C88.0366641,33.5633379 87.3033381,34.2666642 86.35,34.76 C85.3966619,35.2533358 84.2800064,35.5 83,35.5 C81.7199936,35.5 80.5966715,35.2533358 79.63,34.76 C78.6633285,34.2666642 77.9166693,33.5633379 77.39,32.65 C76.8633307,31.7366621 76.6,30.6733394 76.6,29.46 L76.6,21.22 L80.26,21.22 L80.26,29.46 C80.26,30.3400044 80.5199974,31.046664 81.04,31.58 Z M90.6,21.22 L102.62,21.22 L102.62,24.24 L98.42,24.24 L98.42,35.24 L94.76,35.24 L94.76,24.24 L90.6,24.24 L90.6,21.22 Z" id="OUTPUT" fill="#1B2B34"></path>
            </g>
            <g id="Line" transform="translate(123.000000, 19.000000)">
                <path d="M0.5,8.5 L77.5064926,8.5" stroke="#000000" stroke-linecap="square"></path>
                <polygon id="Triangle-1" fill="#000000" points="31 17 31 0 48 8.5"></polygon>
            </g>
            <g id="Gain-node" transform="translate(403.000000, 1.000000)">
                <rect id="Rectangle-1" stroke="#000000" x="-0.5" y="-0.5" width="123" height="57" rx="8"></rect>
                <path d="M46.18,28.08 L49.34,28.08 L49.34,33.66 C48.5933296,34.2066694 47.6766721,34.6499983 46.59,34.99 C45.5033279,35.3300017 44.4733382,35.5 43.5,35.5 C42.0866596,35.5 40.8100057,35.1833365 39.67,34.55 C38.5299943,33.9166635 37.6333366,33.0466722 36.98,31.94 C36.3266634,30.8333278 36,29.5933402 36,28.22 C36,26.8599932 36.3366633,25.6300055 37.01,24.53 C37.6833367,23.4299945 38.6099941,22.5666698 39.79,21.94 C40.9700059,21.3133302 42.2866594,21 43.74,21 C44.7800052,21 45.8199948,21.1899981 46.86,21.57 C47.9000052,21.9500019 48.7799964,22.4599968 49.5,23.1 L47.42,25.66 C46.9133308,25.1799976 46.3300033,24.8000014 45.67,24.52 C45.0099967,24.2399986 44.3600032,24.1 43.72,24.1 C42.9733296,24.1 42.300003,24.2799982 41.7,24.64 C41.099997,25.0000018 40.6266684,25.4933302 40.28,26.12 C39.9333316,26.7466698 39.76,27.4466628 39.76,28.22 C39.76,29.0066706 39.9333316,29.7166635 40.28,30.35 C40.6266684,30.9833365 41.1066636,31.4799982 41.72,31.84 C42.3333364,32.2000018 43.0133296,32.38 43.76,32.38 C44.4666702,32.38 45.2733288,32.1533356 46.18,31.7 L46.18,28.08 Z M62.06,35.24 L61.1,32.76 L55.04,32.76 L54.06,35.24 L50.3,35.24 L56.32,21.22 L60.08,21.22 L65.96,35.24 L62.06,35.24 Z M56.14,29.96 L60.02,29.96 L58.1,24.96 L56.14,29.96 Z M67.22,21.22 L70.88,21.22 L70.88,35.24 L67.22,35.24 L67.22,21.22 Z M83.18,21.22 L86.58,21.22 L86.58,35.24 L83.38,35.24 L77.02,26.86 L77.02,35.24 L73.6,35.24 L73.6,21.22 L76.82,21.22 L83.2,29.66 L83.18,21.22 Z" id="GAIN" fill="#1B2B34"></path>
            </g>
            <g id="Line" transform="translate(324.000000, 20.000000)">
                <path d="M0.5,8.5 L77.5064926,8.5" stroke="#000000" stroke-linecap="square"></path>
                <polygon id="Triangle-1" fill="#000000" points="31 17 31 0 48 8.5"></polygon>
            </g>
            <g id="Gain-node" transform="translate(604.000000, 1.000000)">
                <rect id="Rectangle-1" stroke="#000000" x="-0.5" y="-0.5" width="123" height="57" rx="8"></rect>
                <path d="M46.18,28.08 L49.34,28.08 L49.34,33.66 C48.5933296,34.2066694 47.6766721,34.6499983 46.59,34.99 C45.5033279,35.3300017 44.4733382,35.5 43.5,35.5 C42.0866596,35.5 40.8100057,35.1833365 39.67,34.55 C38.5299943,33.9166635 37.6333366,33.0466722 36.98,31.94 C36.3266634,30.8333278 36,29.5933402 36,28.22 C36,26.8599932 36.3366633,25.6300055 37.01,24.53 C37.6833367,23.4299945 38.6099941,22.5666698 39.79,21.94 C40.9700059,21.3133302 42.2866594,21 43.74,21 C44.7800052,21 45.8199948,21.1899981 46.86,21.57 C47.9000052,21.9500019 48.7799964,22.4599968 49.5,23.1 L47.42,25.66 C46.9133308,25.1799976 46.3300033,24.8000014 45.67,24.52 C45.0099967,24.2399986 44.3600032,24.1 43.72,24.1 C42.9733296,24.1 42.300003,24.2799982 41.7,24.64 C41.099997,25.0000018 40.6266684,25.4933302 40.28,26.12 C39.9333316,26.7466698 39.76,27.4466628 39.76,28.22 C39.76,29.0066706 39.9333316,29.7166635 40.28,30.35 C40.6266684,30.9833365 41.1066636,31.4799982 41.72,31.84 C42.3333364,32.2000018 43.0133296,32.38 43.76,32.38 C44.4666702,32.38 45.2733288,32.1533356 46.18,31.7 L46.18,28.08 Z M62.06,35.24 L61.1,32.76 L55.04,32.76 L54.06,35.24 L50.3,35.24 L56.32,21.22 L60.08,21.22 L65.96,35.24 L62.06,35.24 Z M56.14,29.96 L60.02,29.96 L58.1,24.96 L56.14,29.96 Z M67.22,21.22 L70.88,21.22 L70.88,35.24 L67.22,35.24 L67.22,21.22 Z M83.18,21.22 L86.58,21.22 L86.58,35.24 L83.38,35.24 L77.02,26.86 L77.02,35.24 L73.6,35.24 L73.6,21.22 L76.82,21.22 L83.2,29.66 L83.18,21.22 Z" id="GAIN" fill="#1B2B34"></path>
            </g>
            <g id="Line" transform="translate(525.000000, 20.000000)">
                <path d="M0.5,8.5 L77.5064926,8.5" stroke="#000000" stroke-linecap="square"></path>
                <polygon id="Triangle-1" fill="#000000" points="31 17 31 0 48 8.5"></polygon>
            </g>
            <g id="Gain-node" transform="translate(605.000000, 86.000000)">
                <rect id="Rectangle-1" stroke="#000000" x="-0.5" y="-0.5" width="123" height="57" rx="8"></rect>
                <path d="M46.18,28.08 L49.34,28.08 L49.34,33.66 C48.5933296,34.2066694 47.6766721,34.6499983 46.59,34.99 C45.5033279,35.3300017 44.4733382,35.5 43.5,35.5 C42.0866596,35.5 40.8100057,35.1833365 39.67,34.55 C38.5299943,33.9166635 37.6333366,33.0466722 36.98,31.94 C36.3266634,30.8333278 36,29.5933402 36,28.22 C36,26.8599932 36.3366633,25.6300055 37.01,24.53 C37.6833367,23.4299945 38.6099941,22.5666698 39.79,21.94 C40.9700059,21.3133302 42.2866594,21 43.74,21 C44.7800052,21 45.8199948,21.1899981 46.86,21.57 C47.9000052,21.9500019 48.7799964,22.4599968 49.5,23.1 L47.42,25.66 C46.9133308,25.1799976 46.3300033,24.8000014 45.67,24.52 C45.0099967,24.2399986 44.3600032,24.1 43.72,24.1 C42.9733296,24.1 42.300003,24.2799982 41.7,24.64 C41.099997,25.0000018 40.6266684,25.4933302 40.28,26.12 C39.9333316,26.7466698 39.76,27.4466628 39.76,28.22 C39.76,29.0066706 39.9333316,29.7166635 40.28,30.35 C40.6266684,30.9833365 41.1066636,31.4799982 41.72,31.84 C42.3333364,32.2000018 43.0133296,32.38 43.76,32.38 C44.4666702,32.38 45.2733288,32.1533356 46.18,31.7 L46.18,28.08 Z M62.06,35.24 L61.1,32.76 L55.04,32.76 L54.06,35.24 L50.3,35.24 L56.32,21.22 L60.08,21.22 L65.96,35.24 L62.06,35.24 Z M56.14,29.96 L60.02,29.96 L58.1,24.96 L56.14,29.96 Z M67.22,21.22 L70.88,21.22 L70.88,35.24 L67.22,35.24 L67.22,21.22 Z M83.18,21.22 L86.58,21.22 L86.58,35.24 L83.38,35.24 L77.02,26.86 L77.02,35.24 L73.6,35.24 L73.6,21.22 L76.82,21.22 L83.2,29.66 L83.18,21.22 Z" id="GAIN" fill="#1B2B34"></path>
            </g>
            <g id="Line" transform="translate(526.000000, 95.000000)">
                <path d="M0.5,8.5 L77.5064926,8.5" stroke="#000000" stroke-linecap="square"></path>
                <polygon id="Triangle-1" fill="#000000" points="31 17 31 0 48 8.5"></polygon>
            </g>
            <g id="Line" transform="translate(526.000000, 115.000000)">
                <path d="M0.5,8.5 L77.5064926,8.5" stroke="#000000" stroke-linecap="square"></path>
                <polygon id="Triangle-1" fill="#000000" transform="translate(39.500000, 8.500000) rotate(-180.000000) translate(-39.500000, -8.500000) " points="31 17 31 0 48 8.5"></polygon>
            </g>
            <g id="Delay-node" transform="translate(403.000000, 86.000000)">
                <g id="Rectangle-1">
                    <use fill="#F99157" fill-rule="evenodd" xlink:href="#path-1"></use>
                    <rect stroke="#F99157" stroke-width="1" x="-0.5" y="-0.5" width="123" height="57" rx="8"></rect>
                </g>
                <path d="M36.93,21.88 C38.0566723,22.4666696 38.9333302,23.2899947 39.56,24.35 C40.1866698,25.4100053 40.5,26.6266598 40.5,28 C40.5,29.3733402 40.1833365,30.593328 39.55,31.66 C38.9166635,32.726672 38.0233391,33.5533304 36.87,34.14 C35.7166609,34.7266696 34.3933408,35.02 32.9,35.02 L27,35.02 L27,21 L33.04,21 C34.506674,21 35.8033277,21.2933304 36.93,21.88 Z M35.02,31.56 C35.5666694,31.226665 35.9933318,30.7533364 36.3,30.14 C36.6066682,29.5266636 36.76,28.8266706 36.76,28.04 C36.76,27.239996 36.5966683,26.5333364 36.27,25.92 C35.9433317,25.3066636 35.4933362,24.8300017 34.92,24.49 C34.3466638,24.1499983 33.693337,23.98 32.96,23.98 L30.66,23.98 L30.66,32.06 L33.14,32.06 C33.8466702,32.06 34.4733306,31.893335 35.02,31.56 Z M42.32,21 L53.38,21 L53.38,23.92 L45.98,23.92 L45.98,26.54 L52.66,26.54 L52.66,29.44 L45.98,29.46 L45.98,32.1 L53.58,32.1 L53.58,35.02 L42.32,35.02 L42.32,21 Z M55.82,21 L59.48,21 L59.48,31.9 L65.42,31.9 L65.42,35.02 L55.82,35.02 L55.82,21 Z M77.38,35.02 L76.42,32.54 L70.36,32.54 L69.38,35.02 L65.62,35.02 L71.64,21 L75.4,21 L81.28,35.02 L77.38,35.02 Z M71.46,29.74 L75.34,29.74 L73.42,24.74 L71.46,29.74 Z M94.96,21 L89.9,30.54 L89.9,35.02 L86.24,35.02 L86.24,30.64 L81.08,21 L84.74,21 L88.06,27.02 L91.3,21 L94.96,21 Z" id="DELAY" fill="#1B2B34"></path>
            </g>
            <g id="Line" transform="translate(258.000000, 56.000000)">
                <polygon id="Triangle-1" fill="#000000" points="97 71 97 54 114 62.5"></polygon>
                <path d="M0.203125,0.58984375 C0.203125,0.58984375 0.203125002,82.8632812 142.890625,58.4179687" id="Path-17" stroke="#000000"></path>
            </g>
            <g id="Line" transform="translate(727.000000, 20.000000)">
                <path d="M0.5,8.5 L77.5064926,8.5" stroke="#000000" stroke-linecap="square"></path>
                <polygon id="Triangle-1" fill="#000000" points="31 17 31 0 48 8.5"></polygon>
            </g>
            <g id="line" transform="translate(522.000000, 41.000000)">
                <path d="M0.55078125,46.75 C0.55078125,46.75 25.3359375,2.2578125 81.0234375,2.2578125" id="Path-23" stroke="#000000"></path>
                <polygon id="Triangle-1" fill="#000000" transform="translate(40.500000, 12.500000) rotate(-33.000000) translate(-40.500000, -12.500000) " points="32 21 32 4 49 12.5"></polygon>
            </g>
        </g>
    </g>
</svg>