<?xml version="1.0" encoding="UTF-8"?>
<svg width="605px" height="62px" viewBox="0 0 605 62" version="1.1" xmlns="http://www.w3.org/2000/svg" xmlns:xlink="http://www.w3.org/1999/xlink">
    <!-- Generator: Sketch 46.2 (44496) - http://www.bohemiancoding.com/sketch -->
    <title>Distortion</title>
    <desc>Created with Sketch.</desc>
    <defs>
        <rect id="path-1" x="0" y="0" width="195" height="56" rx="8"></rect>
    </defs>
    <g id="Page-1" stroke="none" stroke-width="1" fill="none" fill-rule="evenodd">
        <g id="Distortion" transform="translate(3.000000, 3.000000)">
            <g id="Input-node">
                <rect id="Rectangle-1" stroke="#000000" x="-0.5" y="-0.5" width="123" height="57" rx="8"></rect>
                <path d="M30,21 L33.66,21 L33.66,35.02 L30,35.02 L30,21 Z M45.96,21 L49.36,21 L49.36,35.02 L46.16,35.02 L39.8,26.64 L39.8,35.02 L36.38,35.02 L36.38,21 L39.6,21 L45.98,29.44 L45.96,21 Z M62.42,22.29 C63.4066716,23.1500043 63.9,24.3599922 63.9,25.92 C63.9,27.5733416 63.4066716,28.8566621 62.42,29.77 C61.4333284,30.6833379 60.0466756,31.14 58.26,31.14 L55.76,31.14 L55.76,35.02 L52.1,35.02 L52.1,21 L58.26,21 C60.0466756,21 61.4333284,21.4299957 62.42,22.29 Z M59.81,27.66 C60.2166687,27.2866648 60.42,26.7466702 60.42,26.04 C60.42,25.3599966 60.2166687,24.8366685 59.81,24.47 C59.4033313,24.1033315 58.8266704,23.92 58.08,23.92 L55.76,23.92 L55.76,28.22 L58.08,28.22 C58.8266704,28.22 59.4033313,28.0333352 59.81,27.66 Z M69.9,31.36 C70.4200026,31.893336 71.079996,32.16 71.88,32.16 C72.6666706,32.16 73.3033309,31.8966693 73.79,31.37 C74.2766691,30.8433307 74.52,30.1333378 74.52,29.24 L74.52,21 L78.18,21 L78.18,29.24 C78.18,30.4533394 77.9233359,31.5166621 77.41,32.43 C76.8966641,33.3433379 76.1633381,34.0466642 75.21,34.54 C74.2566619,35.0333358 73.1400064,35.28 71.86,35.28 C70.5799936,35.28 69.4566715,35.0333358 68.49,34.54 C67.5233285,34.0466642 66.7766693,33.3433379 66.25,32.43 C65.7233307,31.5166621 65.46,30.4533394 65.46,29.24 L65.46,21 L69.12,21 L69.12,29.24 C69.12,30.1200044 69.3799974,30.826664 69.9,31.36 Z M79.46,21 L91.48,21 L91.48,24.02 L87.28,24.02 L87.28,35.02 L83.62,35.02 L83.62,24.02 L79.46,24.02 L79.46,21 Z" id="INPUT" fill="#1B2B34"></path>
            </g>
            <g id="Waveshaper-node" transform="translate(202.000000, 0.000000)">
                <g id="Rectangle-1">
                    <use fill="#F99157" fill-rule="evenodd" xlink:href="#path-1"></use>
                    <rect stroke="#F99157" stroke-width="1" x="-0.5" y="-0.5" width="196" height="57" rx="8"></rect>
                </g>
                <path d="M40.58,21.28 L44.34,21.28 L39.6,35.3 L35.84,35.3 L33.18,25.76 L30.48,35.3 L26.72,35.3 L22,21.28 L25.94,21.28 L28.7,31.52 L31.46,21.28 L35.04,21.28 L37.84,31.52 L40.58,21.28 Z M55.96,35.3 L55,32.82 L48.94,32.82 L47.96,35.3 L44.2,35.3 L50.22,21.28 L53.98,21.28 L59.86,35.3 L55.96,35.3 Z M50.04,30.02 L53.92,30.02 L52,25.02 L50.04,30.02 Z M59.72,21.28 L63.66,21.28 L67.16,31.42 L70.68,21.28 L74.44,21.28 L68.96,35.3 L65.16,35.3 L59.72,21.28 Z M75.76,21.28 L86.82,21.28 L86.82,24.2 L79.42,24.2 L79.42,26.82 L86.1,26.82 L86.1,29.72 L79.42,29.74 L79.42,32.38 L87.02,32.38 L87.02,35.3 L75.76,35.3 L75.76,21.28 Z M96.53,24.42 C95.6833291,24.1399986 94.9733362,24 94.4,24 C93.9466644,24 93.5900013,24.0833325 93.33,24.25 C93.0699987,24.4166675 92.94,24.6599984 92.94,24.98 C92.94,25.2866682 93.0533322,25.5433323 93.28,25.75 C93.5066678,25.9566677 93.786665,26.1233327 94.12,26.25 C94.453335,26.3766673 94.9466634,26.539999 95.6,26.74 C96.5733382,27.0200014 97.3766635,27.2999986 98.01,27.58 C98.6433365,27.8600014 99.1866644,28.2899971 99.64,28.87 C100.093336,29.4500029 100.32,30.206662 100.32,31.14 C100.32,32.073338 100.073336,32.8699967 99.58,33.53 C99.0866642,34.1900033 98.4100043,34.686665 97.55,35.02 C96.6899957,35.353335 95.7333386,35.52 94.68,35.52 C93.5199942,35.52 92.3633391,35.3166687 91.21,34.91 C90.0566609,34.5033313 89.0600042,33.9466702 88.22,33.24 L89.64,30.38 C90.3466702,31.0066698 91.1833285,31.519998 92.15,31.92 C93.1166715,32.320002 93.9733296,32.52 94.72,32.52 C95.2666694,32.52 95.6966651,32.420001 96.01,32.22 C96.3233349,32.019999 96.48,31.7266686 96.48,31.34 C96.48,31.0199984 96.3633345,30.7533344 96.13,30.54 C95.8966655,30.3266656 95.6033351,30.1566673 95.25,30.03 C94.8966649,29.9033327 94.4000032,29.7533342 93.76,29.58 C92.7999952,29.313332 92.0066698,29.0433347 91.38,28.77 C90.7533302,28.4966653 90.2166689,28.0833361 89.77,27.53 C89.3233311,26.9766639 89.1,26.2400046 89.1,25.32 C89.1,24.453329 89.3299977,23.6933366 89.79,23.04 C90.2500023,22.3866634 90.9033291,21.8833351 91.75,21.53 C92.5966709,21.1766649 93.5799944,21 94.7,21 C95.7133384,21 96.7133284,21.1433319 97.7,21.43 C98.6866716,21.7166681 99.5533296,22.0999976 100.3,22.58 L98.92,25.5 C98.1733296,25.0599978 97.3766709,24.7000014 96.53,24.42 Z M102.18,21.28 L105.84,21.28 L105.84,27 L111.5,27 L111.5,21.28 L115.16,21.28 L115.16,35.3 L111.5,35.3 L111.5,29.92 L105.84,29.92 L105.84,35.3 L102.18,35.3 L102.18,21.28 Z M128.18,35.3 L127.22,32.82 L121.16,32.82 L120.18,35.3 L116.42,35.3 L122.44,21.28 L126.2,21.28 L132.08,35.3 L128.18,35.3 Z M122.26,30.02 L126.14,30.02 L124.22,25.02 L122.26,30.02 Z M143.66,22.57 C144.646672,23.4300043 145.14,24.6399922 145.14,26.2 C145.14,27.8533416 144.646672,29.1366621 143.66,30.05 C142.673328,30.9633379 141.286676,31.42 139.5,31.42 L137,31.42 L137,35.3 L133.34,35.3 L133.34,21.28 L139.5,21.28 C141.286676,21.28 142.673328,21.7099957 143.66,22.57 Z M141.05,27.94 C141.456669,27.5666648 141.66,27.0266702 141.66,26.32 C141.66,25.6399966 141.456669,25.1166685 141.05,24.75 C140.643331,24.3833315 140.06667,24.2 139.32,24.2 L137,24.2 L137,28.5 L139.32,28.5 C140.06667,28.5 140.643331,28.3133352 141.05,27.94 Z M146.94,21.28 L158,21.28 L158,24.2 L150.6,24.2 L150.6,26.82 L157.28,26.82 L157.28,29.72 L150.6,29.74 L150.6,32.38 L158.2,32.38 L158.2,35.3 L146.94,35.3 L146.94,21.28 Z M168.86,35.3 L166.82,31.42 L164.1,31.42 L164.1,35.3 L160.44,35.3 L160.44,21.28 L166.74,21.28 C168.593343,21.28 170.029995,21.7099957 171.05,22.57 C172.070005,23.4300043 172.58,24.6399922 172.58,26.2 C172.58,27.2533386 172.366669,28.1633295 171.94,28.93 C171.513331,29.6966705 170.893337,30.2933312 170.08,30.72 L173,35.3 L168.86,35.3 Z M164.1,28.5 L166.76,28.5 C167.50667,28.5 168.083331,28.3133352 168.49,27.94 C168.896669,27.5666648 169.1,27.0266702 169.1,26.32 C169.1,25.6399966 168.896669,25.1166685 168.49,24.75 C168.083331,24.3833315 167.50667,24.2 166.76,24.2 L164.1,24.2 L164.1,28.5 Z" id="WAVESHAPER" fill="#1B2B34"></path>
            </g>
            <g id="Output-node" transform="translate(477.000000, 0.000000)">
                <rect id="Rectangle-1" stroke="#000000" x="-0.5" y="-0.5" width="123" height="57" rx="8"></rect>
                <path d="M30.45,21.94 C31.6033391,22.5666698 32.5099967,23.4266612 33.17,24.52 C33.8300033,25.6133388 34.16,26.8399932 34.16,28.2 C34.16,29.5733402 33.8300033,30.8133278 33.17,31.92 C32.5099967,33.0266722 31.6033391,33.8999968 30.45,34.54 C29.2966609,35.1800032 28.0066738,35.5 26.58,35.5 C25.1533262,35.5 23.8633391,35.1833365 22.71,34.55 C21.5566609,33.9166635 20.6500033,33.0433389 19.99,31.93 C19.3299967,30.8166611 19,29.5733402 19,28.2 C19,26.8399932 19.3299967,25.6133388 19.99,24.52 C20.6500033,23.4266612 21.5566609,22.5666698 22.71,21.94 C23.8633391,21.3133302 25.1533262,21 26.58,21 C28.0066738,21 29.2966609,21.3133302 30.45,21.94 Z M24.69,24.64 C24.0966637,25.0000018 23.6266684,25.4966635 23.28,26.13 C22.9333316,26.7633365 22.76,27.4599962 22.76,28.22 C22.76,28.9933372 22.9366649,29.6966635 23.29,30.33 C23.6433351,30.9633365 24.1133304,31.4633315 24.7,31.83 C25.2866696,32.1966685 25.9266632,32.38 26.62,32.38 C27.3133368,32.38 27.9499971,32.1966685 28.53,31.83 C29.1100029,31.4633315 29.566665,30.9633365 29.9,30.33 C30.233335,29.6966635 30.4,28.9933372 30.4,28.22 C30.4,27.4599962 30.233335,26.7633365 29.9,26.13 C29.566665,25.4966635 29.1100029,25.0000018 28.53,24.64 C27.9499971,24.2799982 27.3133368,24.1 26.62,24.1 C25.9266632,24.1 25.2833363,24.2799982 24.69,24.64 Z M40.18,31.58 C40.7000026,32.113336 41.359996,32.38 42.16,32.38 C42.9466706,32.38 43.5833309,32.1166693 44.07,31.59 C44.5566691,31.0633307 44.8,30.3533378 44.8,29.46 L44.8,21.22 L48.46,21.22 L48.46,29.46 C48.46,30.6733394 48.2033359,31.7366621 47.69,32.65 C47.1766641,33.5633379 46.4433381,34.2666642 45.49,34.76 C44.5366619,35.2533358 43.4200064,35.5 42.14,35.5 C40.8599936,35.5 39.7366715,35.2533358 38.77,34.76 C37.8033285,34.2666642 37.0566693,33.5633379 36.53,32.65 C36.0033307,31.7366621 35.74,30.6733394 35.74,29.46 L35.74,21.22 L39.4,21.22 L39.4,29.46 C39.4,30.3400044 39.6599974,31.046664 40.18,31.58 Z M49.74,21.22 L61.76,21.22 L61.76,24.24 L57.56,24.24 L57.56,35.24 L53.9,35.24 L53.9,24.24 L49.74,24.24 L49.74,21.22 Z M73.56,22.51 C74.5466716,23.3700043 75.04,24.5799922 75.04,26.14 C75.04,27.7933416 74.5466716,29.0766621 73.56,29.99 C72.5733284,30.9033379 71.1866756,31.36 69.4,31.36 L66.9,31.36 L66.9,35.24 L63.24,35.24 L63.24,21.22 L69.4,21.22 C71.1866756,21.22 72.5733284,21.6499957 73.56,22.51 Z M70.95,27.88 C71.3566687,27.5066648 71.56,26.9666702 71.56,26.26 C71.56,25.5799966 71.3566687,25.0566685 70.95,24.69 C70.5433313,24.3233315 69.9666704,24.14 69.22,24.14 L66.9,24.14 L66.9,28.44 L69.22,28.44 C69.9666704,28.44 70.5433313,28.2533352 70.95,27.88 Z M81.04,31.58 C81.5600026,32.113336 82.219996,32.38 83.02,32.38 C83.8066706,32.38 84.4433309,32.1166693 84.93,31.59 C85.4166691,31.0633307 85.66,30.3533378 85.66,29.46 L85.66,21.22 L89.32,21.22 L89.32,29.46 C89.32,30.6733394 89.0633359,31.7366621 88.55,32.65 C88.0366641,33.5633379 87.3033381,34.2666642 86.35,34.76 C85.3966619,35.2533358 84.2800064,35.5 83,35.5 C81.7199936,35.5 80.5966715,35.2533358 79.63,34.76 C78.6633285,34.2666642 77.9166693,33.5633379 77.39,32.65 C76.8633307,31.7366621 76.6,30.6733394 76.6,29.46 L76.6,21.22 L80.26,21.22 L80.26,29.46 C80.26,30.3400044 80.5199974,31.046664 81.04,31.58 Z M90.6,21.22 L102.62,21.22 L102.62,24.24 L98.42,24.24 L98.42,35.24 L94.76,35.24 L94.76,24.24 L90.6,24.24 L90.6,21.22 Z" id="OUTPUT" fill="#1B2B34"></path>
            </g>
            <g id="Line" transform="translate(123.000000, 19.000000)">
                <path d="M0.5,8.5 L77.5064926,8.5" stroke="#000000" stroke-linecap="square"></path>
                <polygon id="Triangle-1" fill="#000000" points="31 17 31 0 48 8.5"></polygon>
            </g>
            <g id="Line" transform="translate(397.000000, 19.000000)">
                <path d="M0.5,8.5 L77.5064926,8.5" stroke="#000000" stroke-linecap="square"></path>
                <polygon id="Triangle-1" fill="#000000" points="31 17 31 0 48 8.5"></polygon>
            </g>
        </g>
    </g>
</svg>