<?xml version="1.0" encoding="UTF-8"?>
<svg width="960px" height="248px" viewBox="0 0 960 248" version="1.1" xmlns="http://www.w3.org/2000/svg" xmlns:xlink="http://www.w3.org/1999/xlink">
    <!-- Generator: Sketch 46.2 (44496) - http://www.bohemiancoding.com/sketch -->
    <title>flanger</title>
    <desc>Created with Sketch.</desc>
    <defs>
        <rect id="path-1" x="0" y="0" width="157" height="56" rx="8"></rect>
        <rect id="path-2" x="0" y="0" width="122" height="56" rx="8"></rect>
        <rect id="path-3" x="0" y="0" width="122" height="56" rx="8"></rect>
    </defs>
    <g id="Page-1" stroke="none" stroke-width="1" fill="none" fill-rule="evenodd">
        <g id="Flanger" transform="translate(3.000000, 3.000000)">
            <g id="Input-node" transform="translate(35.000000, 83.000000)">
                <rect id="Rectangle-1" stroke="#000000" x="-0.5" y="-0.5" width="123" height="57" rx="8"></rect>
                <path d="M30,21 L33.66,21 L33.66,35.02 L30,35.02 L30,21 Z M45.96,21 L49.36,21 L49.36,35.02 L46.16,35.02 L39.8,26.64 L39.8,35.02 L36.38,35.02 L36.38,21 L39.6,21 L45.98,29.44 L45.96,21 Z M62.42,22.29 C63.4066716,23.1500043 63.9,24.3599922 63.9,25.92 C63.9,27.5733416 63.4066716,28.8566621 62.42,29.77 C61.4333284,30.6833379 60.0466756,31.14 58.26,31.14 L55.76,31.14 L55.76,35.02 L52.1,35.02 L52.1,21 L58.26,21 C60.0466756,21 61.4333284,21.4299957 62.42,22.29 Z M59.81,27.66 C60.2166687,27.2866648 60.42,26.7466702 60.42,26.04 C60.42,25.3599966 60.2166687,24.8366685 59.81,24.47 C59.4033313,24.1033315 58.8266704,23.92 58.08,23.92 L55.76,23.92 L55.76,28.22 L58.08,28.22 C58.8266704,28.22 59.4033313,28.0333352 59.81,27.66 Z M69.9,31.36 C70.4200026,31.893336 71.079996,32.16 71.88,32.16 C72.6666706,32.16 73.3033309,31.8966693 73.79,31.37 C74.2766691,30.8433307 74.52,30.1333378 74.52,29.24 L74.52,21 L78.18,21 L78.18,29.24 C78.18,30.4533394 77.9233359,31.5166621 77.41,32.43 C76.8966641,33.3433379 76.1633381,34.0466642 75.21,34.54 C74.2566619,35.0333358 73.1400064,35.28 71.86,35.28 C70.5799936,35.28 69.4566715,35.0333358 68.49,34.54 C67.5233285,34.0466642 66.7766693,33.3433379 66.25,32.43 C65.7233307,31.5166621 65.46,30.4533394 65.46,29.24 L65.46,21 L69.12,21 L69.12,29.24 C69.12,30.1200044 69.3799974,30.826664 69.9,31.36 Z M79.46,21 L91.48,21 L91.48,24.02 L87.28,24.02 L87.28,35.02 L83.62,35.02 L83.62,24.02 L79.46,24.02 L79.46,21 Z" id="INPUT" fill="#1B2B34"></path>
            </g>
            <g id="Oscillator-node" transform="translate(0.000000, 185.000000)">
                <g id="Rectangle-1">
                    <use fill="#F99157" fill-rule="evenodd" xlink:href="#path-1"></use>
                    <rect stroke="#F99157" stroke-width="1" x="-0.5" y="-0.5" width="158" height="57" rx="8"></rect>
                </g>
                <path d="M25.45,22 C26.6033391,22.6266698 27.5099967,23.4866612 28.17,24.58 C28.8300033,25.6733388 29.16,26.8999932 29.16,28.26 C29.16,29.6333402 28.8300033,30.8733278 28.17,31.98 C27.5099967,33.0866722 26.6033391,33.9599968 25.45,34.6 C24.2966609,35.2400032 23.0066738,35.56 21.58,35.56 C20.1533262,35.56 18.8633391,35.2433365 17.71,34.61 C16.5566609,33.9766635 15.6500033,33.1033389 14.99,31.99 C14.3299967,30.8766611 14,29.6333402 14,28.26 C14,26.8999932 14.3299967,25.6733388 14.99,24.58 C15.6500033,23.4866612 16.5566609,22.6266698 17.71,22 C18.8633391,21.3733302 20.1533262,21.06 21.58,21.06 C23.0066738,21.06 24.2966609,21.3733302 25.45,22 Z M19.69,24.7 C19.0966637,25.0600018 18.6266684,25.5566635 18.28,26.19 C17.9333316,26.8233365 17.76,27.5199962 17.76,28.28 C17.76,29.0533372 17.9366649,29.7566635 18.29,30.39 C18.6433351,31.0233365 19.1133304,31.5233315 19.7,31.89 C20.2866696,32.2566685 20.9266632,32.44 21.62,32.44 C22.3133368,32.44 22.9499971,32.2566685 23.53,31.89 C24.1100029,31.5233315 24.566665,31.0233365 24.9,30.39 C25.233335,29.7566635 25.4,29.0533372 25.4,28.28 C25.4,27.5199962 25.233335,26.8233365 24.9,26.19 C24.566665,25.5566635 24.1100029,25.0600018 23.53,24.7 C22.9499971,24.3399982 22.3133368,24.16 21.62,24.16 C20.9266632,24.16 20.2833363,24.3399982 19.69,24.7 Z M38.25,24.42 C37.4033291,24.1399986 36.6933362,24 36.12,24 C35.6666644,24 35.3100013,24.0833325 35.05,24.25 C34.7899987,24.4166675 34.66,24.6599984 34.66,24.98 C34.66,25.2866682 34.7733322,25.5433323 35,25.75 C35.2266678,25.9566677 35.506665,26.1233327 35.84,26.25 C36.173335,26.3766673 36.6666634,26.539999 37.32,26.74 C38.2933382,27.0200014 39.0966635,27.2999986 39.73,27.58 C40.3633365,27.8600014 40.9066644,28.2899971 41.36,28.87 C41.8133356,29.4500029 42.04,30.206662 42.04,31.14 C42.04,32.073338 41.7933358,32.8699967 41.3,33.53 C40.8066642,34.1900033 40.1300043,34.686665 39.27,35.02 C38.4099957,35.353335 37.4533386,35.52 36.4,35.52 C35.2399942,35.52 34.0833391,35.3166687 32.93,34.91 C31.7766609,34.5033313 30.7800042,33.9466702 29.94,33.24 L31.36,30.38 C32.0666702,31.0066698 32.9033285,31.519998 33.87,31.92 C34.8366715,32.320002 35.6933296,32.52 36.44,32.52 C36.9866694,32.52 37.4166651,32.420001 37.73,32.22 C38.0433349,32.019999 38.2,31.7266686 38.2,31.34 C38.2,31.0199984 38.0833345,30.7533344 37.85,30.54 C37.6166655,30.3266656 37.3233351,30.1566673 36.97,30.03 C36.6166649,29.9033327 36.1200032,29.7533342 35.48,29.58 C34.5199952,29.313332 33.7266698,29.0433347 33.1,28.77 C32.4733302,28.4966653 31.9366689,28.0833361 31.49,27.53 C31.0433311,26.9766639 30.82,26.2400046 30.82,25.32 C30.82,24.453329 31.0499977,23.6933366 31.51,23.04 C31.9700023,22.3866634 32.6233291,21.8833351 33.47,21.53 C34.3166709,21.1766649 35.2999944,21 36.42,21 C37.4333384,21 38.4333284,21.1433319 39.42,21.43 C40.4066716,21.7166681 41.2733296,22.0999976 42.02,22.58 L40.64,25.5 C39.8933296,25.0599978 39.0966709,24.7000014 38.25,24.42 Z M52.42,24.67 C51.7933302,24.3299983 51.1733364,24.16 50.56,24.16 C49.8533298,24.16 49.2100029,24.3366649 48.63,24.69 C48.0499971,25.0433351 47.593335,25.5299969 47.26,26.15 C46.926665,26.7700031 46.76,27.4599962 46.76,28.22 C46.76,28.9800038 46.926665,29.6699969 47.26,30.29 C47.593335,30.9100031 48.0499971,31.3966649 48.63,31.75 C49.2100029,32.1033351 49.8533298,32.28 50.56,32.28 C51.1333362,32.28 51.7333302,32.1333348 52.36,31.84 C52.9866698,31.5466652 53.5466642,31.1466692 54.04,30.64 L56.18,32.94 C55.4199962,33.740004 54.5166719,34.3766643 53.47,34.85 C52.4233281,35.3233357 51.3866718,35.56 50.36,35.56 C48.9733264,35.56 47.7200056,35.2400032 46.6,34.6 C45.4799944,33.9599968 44.6000032,33.0866722 43.96,31.98 C43.3199968,30.8733278 43,29.6333402 43,28.26 C43,26.8999932 43.3266634,25.6733388 43.98,24.58 C44.6333366,23.4866612 45.5299943,22.6266698 46.67,22 C47.8100057,21.3733302 49.0866596,21.06 50.5,21.06 C51.5400052,21.06 52.5666616,21.2766645 53.58,21.71 C54.5933384,22.1433355 55.4533298,22.7333296 56.16,23.48 L54.04,26.04 C53.5866644,25.4666638 53.0466698,25.0100017 52.42,24.67 Z M57.74,21.28 L61.4,21.28 L61.4,35.3 L57.74,35.3 L57.74,21.28 Z M64.12,21.28 L67.78,21.28 L67.78,32.18 L73.72,32.18 L73.72,35.3 L64.12,35.3 L64.12,21.28 Z M75.38,21.28 L79.04,21.28 L79.04,32.18 L84.98,32.18 L84.98,35.3 L75.38,35.3 L75.38,21.28 Z M96.94,35.3 L95.98,32.82 L89.92,32.82 L88.94,35.3 L85.18,35.3 L91.2,21.28 L94.96,21.28 L100.84,35.3 L96.94,35.3 Z M91.02,30.02 L94.9,30.02 L92.98,25.02 L91.02,30.02 Z M100.88,21.28 L112.9,21.28 L112.9,24.3 L108.7,24.3 L108.7,35.3 L105.04,35.3 L105.04,24.3 L100.88,24.3 L100.88,21.28 Z M124.93,22 C126.083339,22.6266698 126.989997,23.4866612 127.65,24.58 C128.310003,25.6733388 128.64,26.8999932 128.64,28.26 C128.64,29.6333402 128.310003,30.8733278 127.65,31.98 C126.989997,33.0866722 126.083339,33.9599968 124.93,34.6 C123.776661,35.2400032 122.486674,35.56 121.06,35.56 C119.633326,35.56 118.343339,35.2433365 117.19,34.61 C116.036661,33.9766635 115.130003,33.1033389 114.47,31.99 C113.809997,30.8766611 113.48,29.6333402 113.48,28.26 C113.48,26.8999932 113.809997,25.6733388 114.47,24.58 C115.130003,23.4866612 116.036661,22.6266698 117.19,22 C118.343339,21.3733302 119.633326,21.06 121.06,21.06 C122.486674,21.06 123.776661,21.3733302 124.93,22 Z M119.17,24.7 C118.576664,25.0600018 118.106668,25.5566635 117.76,26.19 C117.413332,26.8233365 117.24,27.5199962 117.24,28.28 C117.24,29.0533372 117.416665,29.7566635 117.77,30.39 C118.123335,31.0233365 118.59333,31.5233315 119.18,31.89 C119.76667,32.2566685 120.406663,32.44 121.1,32.44 C121.793337,32.44 122.429997,32.2566685 123.01,31.89 C123.590003,31.5233315 124.046665,31.0233365 124.38,30.39 C124.713335,29.7566635 124.88,29.0533372 124.88,28.28 C124.88,27.5199962 124.713335,26.8233365 124.38,26.19 C124.046665,25.5566635 123.590003,25.0600018 123.01,24.7 C122.429997,24.3399982 121.793337,24.16 121.1,24.16 C120.406663,24.16 119.763336,24.3399982 119.17,24.7 Z M138.88,35.3 L136.84,31.42 L134.12,31.42 L134.12,35.3 L130.46,35.3 L130.46,21.28 L136.76,21.28 C138.613343,21.28 140.049995,21.7099957 141.07,22.57 C142.090005,23.4300043 142.6,24.6399922 142.6,26.2 C142.6,27.2533386 142.386669,28.1633295 141.96,28.93 C141.533331,29.6966705 140.913337,30.2933312 140.1,30.72 L143.02,35.3 L138.88,35.3 Z M134.12,28.5 L136.78,28.5 C137.52667,28.5 138.103331,28.3133352 138.51,27.94 C138.916669,27.5666648 139.12,27.0266702 139.12,26.32 C139.12,25.6399966 138.916669,25.1166685 138.51,24.75 C138.103331,24.3833315 137.52667,24.2 136.78,24.2 L134.12,24.2 L134.12,28.5 Z" id="OSCILLATOR" fill="#1B2B34"></path>
            </g>
            <g id="Gain-node" transform="translate(237.000000, 83.000000)">
                <rect id="Rectangle-1" stroke="#000000" x="-0.5" y="-0.5" width="123" height="57" rx="8"></rect>
                <path d="M46.18,28.08 L49.34,28.08 L49.34,33.66 C48.5933296,34.2066694 47.6766721,34.6499983 46.59,34.99 C45.5033279,35.3300017 44.4733382,35.5 43.5,35.5 C42.0866596,35.5 40.8100057,35.1833365 39.67,34.55 C38.5299943,33.9166635 37.6333366,33.0466722 36.98,31.94 C36.3266634,30.8333278 36,29.5933402 36,28.22 C36,26.8599932 36.3366633,25.6300055 37.01,24.53 C37.6833367,23.4299945 38.6099941,22.5666698 39.79,21.94 C40.9700059,21.3133302 42.2866594,21 43.74,21 C44.7800052,21 45.8199948,21.1899981 46.86,21.57 C47.9000052,21.9500019 48.7799964,22.4599968 49.5,23.1 L47.42,25.66 C46.9133308,25.1799976 46.3300033,24.8000014 45.67,24.52 C45.0099967,24.2399986 44.3600032,24.1 43.72,24.1 C42.9733296,24.1 42.300003,24.2799982 41.7,24.64 C41.099997,25.0000018 40.6266684,25.4933302 40.28,26.12 C39.9333316,26.7466698 39.76,27.4466628 39.76,28.22 C39.76,29.0066706 39.9333316,29.7166635 40.28,30.35 C40.6266684,30.9833365 41.1066636,31.4799982 41.72,31.84 C42.3333364,32.2000018 43.0133296,32.38 43.76,32.38 C44.4666702,32.38 45.2733288,32.1533356 46.18,31.7 L46.18,28.08 Z M62.06,35.24 L61.1,32.76 L55.04,32.76 L54.06,35.24 L50.3,35.24 L56.32,21.22 L60.08,21.22 L65.96,35.24 L62.06,35.24 Z M56.14,29.96 L60.02,29.96 L58.1,24.96 L56.14,29.96 Z M67.22,21.22 L70.88,21.22 L70.88,35.24 L67.22,35.24 L67.22,21.22 Z M83.18,21.22 L86.58,21.22 L86.58,35.24 L83.38,35.24 L77.02,26.86 L77.02,35.24 L73.6,35.24 L73.6,21.22 L76.82,21.22 L83.2,29.66 L83.18,21.22 Z" id="GAIN" fill="#1B2B34"></path>
            </g>
            <g id="Output-node" transform="translate(832.000000, 0.000000)">
                <rect id="Rectangle-1" stroke="#000000" x="-0.5" y="-0.5" width="123" height="57" rx="8"></rect>
                <path d="M30.45,21.94 C31.6033391,22.5666698 32.5099967,23.4266612 33.17,24.52 C33.8300033,25.6133388 34.16,26.8399932 34.16,28.2 C34.16,29.5733402 33.8300033,30.8133278 33.17,31.92 C32.5099967,33.0266722 31.6033391,33.8999968 30.45,34.54 C29.2966609,35.1800032 28.0066738,35.5 26.58,35.5 C25.1533262,35.5 23.8633391,35.1833365 22.71,34.55 C21.5566609,33.9166635 20.6500033,33.0433389 19.99,31.93 C19.3299967,30.8166611 19,29.5733402 19,28.2 C19,26.8399932 19.3299967,25.6133388 19.99,24.52 C20.6500033,23.4266612 21.5566609,22.5666698 22.71,21.94 C23.8633391,21.3133302 25.1533262,21 26.58,21 C28.0066738,21 29.2966609,21.3133302 30.45,21.94 Z M24.69,24.64 C24.0966637,25.0000018 23.6266684,25.4966635 23.28,26.13 C22.9333316,26.7633365 22.76,27.4599962 22.76,28.22 C22.76,28.9933372 22.9366649,29.6966635 23.29,30.33 C23.6433351,30.9633365 24.1133304,31.4633315 24.7,31.83 C25.2866696,32.1966685 25.9266632,32.38 26.62,32.38 C27.3133368,32.38 27.9499971,32.1966685 28.53,31.83 C29.1100029,31.4633315 29.566665,30.9633365 29.9,30.33 C30.233335,29.6966635 30.4,28.9933372 30.4,28.22 C30.4,27.4599962 30.233335,26.7633365 29.9,26.13 C29.566665,25.4966635 29.1100029,25.0000018 28.53,24.64 C27.9499971,24.2799982 27.3133368,24.1 26.62,24.1 C25.9266632,24.1 25.2833363,24.2799982 24.69,24.64 Z M40.18,31.58 C40.7000026,32.113336 41.359996,32.38 42.16,32.38 C42.9466706,32.38 43.5833309,32.1166693 44.07,31.59 C44.5566691,31.0633307 44.8,30.3533378 44.8,29.46 L44.8,21.22 L48.46,21.22 L48.46,29.46 C48.46,30.6733394 48.2033359,31.7366621 47.69,32.65 C47.1766641,33.5633379 46.4433381,34.2666642 45.49,34.76 C44.5366619,35.2533358 43.4200064,35.5 42.14,35.5 C40.8599936,35.5 39.7366715,35.2533358 38.77,34.76 C37.8033285,34.2666642 37.0566693,33.5633379 36.53,32.65 C36.0033307,31.7366621 35.74,30.6733394 35.74,29.46 L35.74,21.22 L39.4,21.22 L39.4,29.46 C39.4,30.3400044 39.6599974,31.046664 40.18,31.58 Z M49.74,21.22 L61.76,21.22 L61.76,24.24 L57.56,24.24 L57.56,35.24 L53.9,35.24 L53.9,24.24 L49.74,24.24 L49.74,21.22 Z M73.56,22.51 C74.5466716,23.3700043 75.04,24.5799922 75.04,26.14 C75.04,27.7933416 74.5466716,29.0766621 73.56,29.99 C72.5733284,30.9033379 71.1866756,31.36 69.4,31.36 L66.9,31.36 L66.9,35.24 L63.24,35.24 L63.24,21.22 L69.4,21.22 C71.1866756,21.22 72.5733284,21.6499957 73.56,22.51 Z M70.95,27.88 C71.3566687,27.5066648 71.56,26.9666702 71.56,26.26 C71.56,25.5799966 71.3566687,25.0566685 70.95,24.69 C70.5433313,24.3233315 69.9666704,24.14 69.22,24.14 L66.9,24.14 L66.9,28.44 L69.22,28.44 C69.9666704,28.44 70.5433313,28.2533352 70.95,27.88 Z M81.04,31.58 C81.5600026,32.113336 82.219996,32.38 83.02,32.38 C83.8066706,32.38 84.4433309,32.1166693 84.93,31.59 C85.4166691,31.0633307 85.66,30.3533378 85.66,29.46 L85.66,21.22 L89.32,21.22 L89.32,29.46 C89.32,30.6733394 89.0633359,31.7366621 88.55,32.65 C88.0366641,33.5633379 87.3033381,34.2666642 86.35,34.76 C85.3966619,35.2533358 84.2800064,35.5 83,35.5 C81.7199936,35.5 80.5966715,35.2533358 79.63,34.76 C78.6633285,34.2666642 77.9166693,33.5633379 77.39,32.65 C76.8633307,31.7366621 76.6,30.6733394 76.6,29.46 L76.6,21.22 L80.26,21.22 L80.26,29.46 C80.26,30.3400044 80.5199974,31.046664 81.04,31.58 Z M90.6,21.22 L102.62,21.22 L102.62,24.24 L98.42,24.24 L98.42,35.24 L94.76,35.24 L94.76,24.24 L90.6,24.24 L90.6,21.22 Z" id="OUTPUT" fill="#1B2B34"></path>
            </g>
            <g id="Line" transform="translate(158.000000, 102.000000)">
                <path d="M0.5,8.5 L77.5064926,8.5" stroke="#000000" stroke-linecap="square"></path>
                <polygon id="Triangle-1" fill="#000000" points="31 17 31 0 48 8.5"></polygon>
            </g>
            <g id="Gain-node" transform="translate(237.000000, 185.000000)">
                <g id="Rectangle-1">
                    <use fill="#F99157" fill-rule="evenodd" xlink:href="#path-2"></use>
                    <rect stroke="#F99157" stroke-width="1" x="-0.5" y="-0.5" width="123" height="57" rx="8"></rect>
                </g>
                <path d="M46.18,28.08 L49.34,28.08 L49.34,33.66 C48.5933296,34.2066694 47.6766721,34.6499983 46.59,34.99 C45.5033279,35.3300017 44.4733382,35.5 43.5,35.5 C42.0866596,35.5 40.8100057,35.1833365 39.67,34.55 C38.5299943,33.9166635 37.6333366,33.0466722 36.98,31.94 C36.3266634,30.8333278 36,29.5933402 36,28.22 C36,26.8599932 36.3366633,25.6300055 37.01,24.53 C37.6833367,23.4299945 38.6099941,22.5666698 39.79,21.94 C40.9700059,21.3133302 42.2866594,21 43.74,21 C44.7800052,21 45.8199948,21.1899981 46.86,21.57 C47.9000052,21.9500019 48.7799964,22.4599968 49.5,23.1 L47.42,25.66 C46.9133308,25.1799976 46.3300033,24.8000014 45.67,24.52 C45.0099967,24.2399986 44.3600032,24.1 43.72,24.1 C42.9733296,24.1 42.300003,24.2799982 41.7,24.64 C41.099997,25.0000018 40.6266684,25.4933302 40.28,26.12 C39.9333316,26.7466698 39.76,27.4466628 39.76,28.22 C39.76,29.0066706 39.9333316,29.7166635 40.28,30.35 C40.6266684,30.9833365 41.1066636,31.4799982 41.72,31.84 C42.3333364,32.2000018 43.0133296,32.38 43.76,32.38 C44.4666702,32.38 45.2733288,32.1533356 46.18,31.7 L46.18,28.08 Z M62.06,35.24 L61.1,32.76 L55.04,32.76 L54.06,35.24 L50.3,35.24 L56.32,21.22 L60.08,21.22 L65.96,35.24 L62.06,35.24 Z M56.14,29.96 L60.02,29.96 L58.1,24.96 L56.14,29.96 Z M67.22,21.22 L70.88,21.22 L70.88,35.24 L67.22,35.24 L67.22,21.22 Z M83.18,21.22 L86.58,21.22 L86.58,35.24 L83.38,35.24 L77.02,26.86 L77.02,35.24 L73.6,35.24 L73.6,21.22 L76.82,21.22 L83.2,29.66 L83.18,21.22 Z" id="GAIN" fill="#1B2B34"></path>
            </g>
            <g id="Line" transform="translate(158.000000, 204.000000)">
                <path d="M0.5,8.5 L77.5064926,8.5" stroke="#F99157" stroke-linecap="square"></path>
                <polygon id="Triangle-1" fill="#F99157" points="31 17 31 0 48 8.5"></polygon>
            </g>
            <g id="Line" transform="translate(448.339934, 215.651576) rotate(-27.000000) translate(-448.339934, -215.651576) translate(372.839934, 156.151576)">
                <path d="M0.552022112,18.7228876 C0.552022112,18.7228876 76.9349491,60.6225039 124.513074,0.321722633" id="Path-42" stroke="#F99157" stroke-dasharray="8,8"></path>
                <polygon id="Triangle-1" fill="#F99157" points="43.2730789 40.0278444 43.2730789 23.0278444 60.2730789 31.5278444"></polygon>
                <path d="M38.0900838,72.954329 C39.2167561,73.5409986 40.093414,74.3643237 40.7200838,75.424329 C41.3467536,76.4843343 41.6600838,77.7009888 41.6600838,79.074329 C41.6600838,80.4476692 41.3434203,81.667657 40.7100838,82.734329 C40.0767473,83.801001 39.1834229,84.6276594 38.0300838,85.214329 C36.8767447,85.8009986 35.5534246,86.094329 34.0600838,86.094329 L28.1600838,86.094329 L28.1600838,72.074329 L34.2000838,72.074329 C35.6667578,72.074329 36.9634115,72.3676594 38.0900838,72.954329 Z M36.1800838,82.634329 C36.7267532,82.300994 37.1534156,81.8276654 37.4600838,81.214329 C37.766752,80.6009926 37.9200838,79.9009996 37.9200838,79.114329 C37.9200838,78.314325 37.7567521,77.6076654 37.4300838,76.994329 C37.1034155,76.3809926 36.65342,75.9043307 36.0800838,75.564329 C35.5067476,75.2243273 34.8534208,75.054329 34.1200838,75.054329 L31.8200838,75.054329 L31.8200838,83.134329 L34.3000838,83.134329 C35.006754,83.134329 35.6334144,82.967664 36.1800838,82.634329 Z M43.4800838,72.074329 L54.5400838,72.074329 L54.5400838,74.994329 L47.1400838,74.994329 L47.1400838,77.614329 L53.8200838,77.614329 L53.8200838,80.514329 L47.1400838,80.534329 L47.1400838,83.174329 L54.7400838,83.174329 L54.7400838,86.094329 L43.4800838,86.094329 L43.4800838,72.074329 Z M56.9800838,72.074329 L60.6400838,72.074329 L60.6400838,82.974329 L66.5800838,82.974329 L66.5800838,86.094329 L56.9800838,86.094329 L56.9800838,72.074329 Z M78.5400838,86.094329 L77.5800838,83.614329 L71.5200838,83.614329 L70.5400838,86.094329 L66.7800838,86.094329 L72.8000838,72.074329 L76.5600838,72.074329 L82.4400838,86.094329 L78.5400838,86.094329 Z M72.6200838,80.814329 L76.5000838,80.814329 L74.5800838,75.814329 L72.6200838,80.814329 Z M96.1200838,72.074329 L91.0600838,81.614329 L91.0600838,86.094329 L87.4000838,86.094329 L87.4000838,81.714329 L82.2400838,72.074329 L85.9000838,72.074329 L89.2200838,78.094329 L92.4600838,72.074329 L96.1200838,72.074329 Z M100.600084,72.074329 L112.620084,72.074329 L112.620084,75.094329 L108.420084,75.094329 L108.420084,86.094329 L104.760084,86.094329 L104.760084,75.094329 L100.600084,75.094329 L100.600084,72.074329 Z M114.100084,72.074329 L117.760084,72.074329 L117.760084,86.094329 L114.100084,86.094329 L114.100084,72.074329 Z M120.480084,72.074329 L124.460084,72.074329 L128.520084,80.274329 L132.560084,72.074329 L136.540084,72.074329 L136.540084,86.094329 L133.300084,86.094329 L133.280084,77.214329 L129.700084,84.694329 L127.340084,84.694329 L123.740084,77.214329 L123.740084,86.094329 L120.480084,86.094329 L120.480084,72.074329 Z M139.260084,72.074329 L150.320084,72.074329 L150.320084,74.994329 L142.920084,74.994329 L142.920084,77.614329 L149.600084,77.614329 L149.600084,80.514329 L142.920084,80.534329 L142.920084,83.174329 L150.520084,83.174329 L150.520084,86.094329 L139.260084,86.094329 L139.260084,72.074329 Z" id="DELAY-TIME" fill="#F99157" transform="translate(89.340084, 79.084329) rotate(27.000000) translate(-89.340084, -79.084329) "></path>
            </g>
            <g id="Gain-node" transform="translate(630.000000, 0.000000)">
                <rect id="Rectangle-1" stroke="#000000" x="-0.5" y="-0.5" width="123" height="57" rx="8"></rect>
                <path d="M46.18,28.08 L49.34,28.08 L49.34,33.66 C48.5933296,34.2066694 47.6766721,34.6499983 46.59,34.99 C45.5033279,35.3300017 44.4733382,35.5 43.5,35.5 C42.0866596,35.5 40.8100057,35.1833365 39.67,34.55 C38.5299943,33.9166635 37.6333366,33.0466722 36.98,31.94 C36.3266634,30.8333278 36,29.5933402 36,28.22 C36,26.8599932 36.3366633,25.6300055 37.01,24.53 C37.6833367,23.4299945 38.6099941,22.5666698 39.79,21.94 C40.9700059,21.3133302 42.2866594,21 43.74,21 C44.7800052,21 45.8199948,21.1899981 46.86,21.57 C47.9000052,21.9500019 48.7799964,22.4599968 49.5,23.1 L47.42,25.66 C46.9133308,25.1799976 46.3300033,24.8000014 45.67,24.52 C45.0099967,24.2399986 44.3600032,24.1 43.72,24.1 C42.9733296,24.1 42.300003,24.2799982 41.7,24.64 C41.099997,25.0000018 40.6266684,25.4933302 40.28,26.12 C39.9333316,26.7466698 39.76,27.4466628 39.76,28.22 C39.76,29.0066706 39.9333316,29.7166635 40.28,30.35 C40.6266684,30.9833365 41.1066636,31.4799982 41.72,31.84 C42.3333364,32.2000018 43.0133296,32.38 43.76,32.38 C44.4666702,32.38 45.2733288,32.1533356 46.18,31.7 L46.18,28.08 Z M62.06,35.24 L61.1,32.76 L55.04,32.76 L54.06,35.24 L50.3,35.24 L56.32,21.22 L60.08,21.22 L65.96,35.24 L62.06,35.24 Z M56.14,29.96 L60.02,29.96 L58.1,24.96 L56.14,29.96 Z M67.22,21.22 L70.88,21.22 L70.88,35.24 L67.22,35.24 L67.22,21.22 Z M83.18,21.22 L86.58,21.22 L86.58,35.24 L83.38,35.24 L77.02,26.86 L77.02,35.24 L73.6,35.24 L73.6,21.22 L76.82,21.22 L83.2,29.66 L83.18,21.22 Z" id="GAIN" fill="#1B2B34"></path>
            </g>
            <g id="Line" transform="translate(362.000000, 25.000000)">
                <path d="M266.6875,0.8125 C266.6875,0.8125 124.445312,-3.82421875 0.10546875,61.5039063" id="Path-32" stroke="#000000"></path>
                <polygon id="Triangle-1" fill="#000000" transform="translate(141.500000, 12.500000) rotate(-12.000000) translate(-141.500000, -12.500000) " points="133 21 133 4 150 12.5"></polygon>
            </g>
            <g id="Gain-node" transform="translate(628.000000, 185.000000)">
                <rect id="Rectangle-1" stroke="#000000" x="-0.5" y="-0.5" width="123" height="57" rx="8"></rect>
                <path d="M46.18,28.08 L49.34,28.08 L49.34,33.66 C48.5933296,34.2066694 47.6766721,34.6499983 46.59,34.99 C45.5033279,35.3300017 44.4733382,35.5 43.5,35.5 C42.0866596,35.5 40.8100057,35.1833365 39.67,34.55 C38.5299943,33.9166635 37.6333366,33.0466722 36.98,31.94 C36.3266634,30.8333278 36,29.5933402 36,28.22 C36,26.8599932 36.3366633,25.6300055 37.01,24.53 C37.6833367,23.4299945 38.6099941,22.5666698 39.79,21.94 C40.9700059,21.3133302 42.2866594,21 43.74,21 C44.7800052,21 45.8199948,21.1899981 46.86,21.57 C47.9000052,21.9500019 48.7799964,22.4599968 49.5,23.1 L47.42,25.66 C46.9133308,25.1799976 46.3300033,24.8000014 45.67,24.52 C45.0099967,24.2399986 44.3600032,24.1 43.72,24.1 C42.9733296,24.1 42.300003,24.2799982 41.7,24.64 C41.099997,25.0000018 40.6266684,25.4933302 40.28,26.12 C39.9333316,26.7466698 39.76,27.4466628 39.76,28.22 C39.76,29.0066706 39.9333316,29.7166635 40.28,30.35 C40.6266684,30.9833365 41.1066636,31.4799982 41.72,31.84 C42.3333364,32.2000018 43.0133296,32.38 43.76,32.38 C44.4666702,32.38 45.2733288,32.1533356 46.18,31.7 L46.18,28.08 Z M62.06,35.24 L61.1,32.76 L55.04,32.76 L54.06,35.24 L50.3,35.24 L56.32,21.22 L60.08,21.22 L65.96,35.24 L62.06,35.24 Z M56.14,29.96 L60.02,29.96 L58.1,24.96 L56.14,29.96 Z M67.22,21.22 L70.88,21.22 L70.88,35.24 L67.22,35.24 L67.22,21.22 Z M83.18,21.22 L86.58,21.22 L86.58,35.24 L83.38,35.24 L77.02,26.86 L77.02,35.24 L73.6,35.24 L73.6,21.22 L76.82,21.22 L83.2,29.66 L83.18,21.22 Z" id="GAIN" fill="#1B2B34"></path>
            </g>
            <g id="Line" transform="translate(359.000000, 135.000000)">
                <path d="M267.6875,75.8125 C267.6875,75.8125 78.5898438,95.9492165 0.91015625,0.238282159" id="Path-32" stroke="#000000"></path>
                <polygon id="Triangle-1" fill="#000000" transform="translate(139.710625, 68.710625) rotate(179.000000) translate(-139.710625, -68.710625) " points="131.210625 77.2106248 131.210625 60.2106248 148.210625 68.7106248"></polygon>
            </g>
            <g id="Line" transform="translate(562.000000, 58.000000)">
                <path d="M124.511719,0.738282159 C124.511719,0.738282159 99.0625,40.2382822 0.91015625,40.2382822" id="Path-32" stroke="#000000"></path>
                <polygon id="Triangle-1" fill="#000000" transform="translate(62.710625, 33.710625) rotate(-20.000000) translate(-62.710625, -33.710625) " points="54.2106248 42.2106248 54.2106248 25.2106248 71.2106248 33.7106248"></polygon>
            </g>
            <g id="Line" transform="translate(564.000000, 118.000000)">
                <path d="M118.347656,64.8671884 C118.347656,64.8671884 99.0625,3.23828216 0.91015625,3.23828216" id="Path-32" stroke="#000000"></path>
                <polygon id="Triangle-1" fill="#000000" transform="translate(59.894558, 11.894558) rotate(27.000000) translate(-59.894558, -11.894558) " points="51.3945585 20.3945585 51.3945585 3.39455849 68.3945585 11.8945585"></polygon>
            </g>
            <g id="Line" transform="translate(360.000000, 101.000000)">
                <path d="M0.5,8.5 L77.5064926,8.5" stroke="#000000" stroke-linecap="square"></path>
                <polygon id="Triangle-1" fill="#000000" points="31 17 31 0 48 8.5"></polygon>
            </g>
            <g id="Delay-node" transform="translate(439.000000, 83.000000)">
                <g id="Rectangle-1">
                    <use fill="#F99157" fill-rule="evenodd" xlink:href="#path-3"></use>
                    <rect stroke="#F99157" stroke-width="1" x="-0.5" y="-0.5" width="123" height="57" rx="8"></rect>
                </g>
                <path d="M36.93,21.88 C38.0566723,22.4666696 38.9333302,23.2899947 39.56,24.35 C40.1866698,25.4100053 40.5,26.6266598 40.5,28 C40.5,29.3733402 40.1833365,30.593328 39.55,31.66 C38.9166635,32.726672 38.0233391,33.5533304 36.87,34.14 C35.7166609,34.7266696 34.3933408,35.02 32.9,35.02 L27,35.02 L27,21 L33.04,21 C34.506674,21 35.8033277,21.2933304 36.93,21.88 Z M35.02,31.56 C35.5666694,31.226665 35.9933318,30.7533364 36.3,30.14 C36.6066682,29.5266636 36.76,28.8266706 36.76,28.04 C36.76,27.239996 36.5966683,26.5333364 36.27,25.92 C35.9433317,25.3066636 35.4933362,24.8300017 34.92,24.49 C34.3466638,24.1499983 33.693337,23.98 32.96,23.98 L30.66,23.98 L30.66,32.06 L33.14,32.06 C33.8466702,32.06 34.4733306,31.893335 35.02,31.56 Z M42.32,21 L53.38,21 L53.38,23.92 L45.98,23.92 L45.98,26.54 L52.66,26.54 L52.66,29.44 L45.98,29.46 L45.98,32.1 L53.58,32.1 L53.58,35.02 L42.32,35.02 L42.32,21 Z M55.82,21 L59.48,21 L59.48,31.9 L65.42,31.9 L65.42,35.02 L55.82,35.02 L55.82,21 Z M77.38,35.02 L76.42,32.54 L70.36,32.54 L69.38,35.02 L65.62,35.02 L71.64,21 L75.4,21 L81.28,35.02 L77.38,35.02 Z M71.46,29.74 L75.34,29.74 L73.42,24.74 L71.46,29.74 Z M94.96,21 L89.9,30.54 L89.9,35.02 L86.24,35.02 L86.24,30.64 L81.08,21 L84.74,21 L88.06,27.02 L91.3,21 L94.96,21 Z" id="DELAY" fill="#1B2B34"></path>
            </g>
            <g id="Line" transform="translate(752.000000, 19.000000)">
                <path d="M0.5,8.5 L77.5064926,8.5" stroke="#000000" stroke-linecap="square"></path>
                <polygon id="Triangle-1" fill="#000000" points="31 17 31 0 48 8.5"></polygon>
            </g>
        </g>
    </g>
</svg>