<?xml version="1.0" encoding="UTF-8"?>
<svg width="95px" height="152px" viewBox="0 0 95 152" version="1.1" xmlns="http://www.w3.org/2000/svg" xmlns:xlink="http://www.w3.org/1999/xlink">
    <!-- Generator: Sketch 46.2 (44496) - http://www.bohemiancoding.com/sketch -->
    <title>Fill 48</title>
    <desc>Created with Sketch.</desc>
    <defs></defs>
    <g id="Page-1" stroke="none" stroke-width="1" fill="none" fill-rule="evenodd">
        <path d="M17.0695189,73.353 L17.0695189,80.08 C17.0695189,96.819 30.6905189,110.439 47.4325189,110.439 C47.4325189,110.439 47.4335189,110.439 47.4345189,110.439 L47.4365189,110.439 C64.1785189,110.439 77.7985189,96.819 77.7985189,80.08 L77.7985189,73.353 L82.6055189,73.34 C82.6055189,73.34 82.5935189,79.838 82.5935189,79.875 C82.5935189,99.263 66.8215189,115.039 47.4345189,115.045 C28.0475189,115.039 12.1995189,99.275 12.1995189,79.886 C12.1995189,79.85 12.2295189,73.353 12.2295189,73.353 L17.0695189,73.353 Z M29.3025189,80.08 L29.3025189,73.353 L65.5655189,73.353 L65.5655189,80.08 C65.5655189,90.078 57.4325189,98.212 47.4345189,98.213 C37.4365189,98.212 29.3025189,90.078 29.3025189,80.08 Z M65.5655189,30.359 L65.5655189,61.128 L29.3025189,61.128 L29.3025189,30.359 C29.3025189,20.362 37.4365189,12.226 47.4345189,12.226 C57.4325189,12.226 65.5655189,20.362 65.5655189,30.359 Z M94.8545189,53.304 C94.6965189,49.443 94.3375189,48.928 93.1885189,47.782 C90.8015189,45.397 86.8435189,45.454 84.4555189,47.841 C83.1205189,49.176 82.5335189,50.976 82.6905189,52.72 C82.6975189,52.922 82.6905189,57.627 82.6795189,61.128 L77.7985189,61.128 L77.7985189,30.359 C77.7985189,13.619 64.1785189,0 47.4365189,0 L47.4345189,0 C47.4335189,0 47.4325189,0 47.4325189,0 C30.6905189,0 17.0695189,13.619 17.0695189,30.359 L17.0695189,61.128 L12.1885189,61.128 C12.1775189,57.627 12.1715189,52.922 12.1775189,52.72 C12.3355189,50.976 11.7475189,49.176 10.4125189,47.841 C8.02451889,45.454 4.15451889,45.454 1.76651889,47.841 C0.619518889,48.987 0.171518889,49.443 0.0135188889,53.304 C0.0135188889,53.304 -0.00948111111,71.347 0.00451888889,73.27 C0.0165188889,76.993 0.0255188889,79.772 0.0255188889,79.875 C0.0255188889,103.94 18.0595189,123.859 41.3185189,126.865 L41.3185189,138.967 L24.4055189,138.967 C21.0285189,138.967 18.2925189,141.703 18.2925189,145.08 C18.2925189,148.456 21.0285189,151.193 24.4055189,151.193 L70.4635189,151.193 C73.8395189,151.193 76.5765189,148.456 76.5765189,145.08 C76.5765189,141.703 73.8395189,138.967 70.4635189,138.967 L53.5495189,138.967 L53.5495189,126.865 C76.8095189,123.859 94.8435189,103.94 94.8435189,79.875 C94.8435189,79.772 94.8545189,53.304 94.8545189,53.304 L94.8545189,53.304 Z" id="Fill-48" fill="#1B2B34"></path>
    </g>
</svg>