<?xml version="1.0" encoding="UTF-8"?>
<svg width="1159px" height="202px" viewBox="0 0 1159 202" version="1.1" xmlns="http://www.w3.org/2000/svg" xmlns:xlink="http://www.w3.org/1999/xlink">
    <!-- Generator: Sketch 46.2 (44496) - http://www.bohemiancoding.com/sketch -->
    <title>reverb</title>
    <desc>Created with Sketch.</desc>
    <defs>
        <rect id="path-1" x="0" y="0" width="166" height="56" rx="8"></rect>
    </defs>
    <g id="Page-1" stroke="none" stroke-width="1" fill="none" fill-rule="evenodd">
        <g id="Reverb" transform="translate(3.000000, 3.000000)">
            <g id="Input-node" transform="translate(0.000000, 56.000000)">
                <rect id="Rectangle-1" stroke="#000000" x="-0.5" y="-0.5" width="123" height="57" rx="8"></rect>
                <path d="M30,21 L33.66,21 L33.66,35.02 L30,35.02 L30,21 Z M45.96,21 L49.36,21 L49.36,35.02 L46.16,35.02 L39.8,26.64 L39.8,35.02 L36.38,35.02 L36.38,21 L39.6,21 L45.98,29.44 L45.96,21 Z M62.42,22.29 C63.4066716,23.1500043 63.9,24.3599922 63.9,25.92 C63.9,27.5733416 63.4066716,28.8566621 62.42,29.77 C61.4333284,30.6833379 60.0466756,31.14 58.26,31.14 L55.76,31.14 L55.76,35.02 L52.1,35.02 L52.1,21 L58.26,21 C60.0466756,21 61.4333284,21.4299957 62.42,22.29 Z M59.81,27.66 C60.2166687,27.2866648 60.42,26.7466702 60.42,26.04 C60.42,25.3599966 60.2166687,24.8366685 59.81,24.47 C59.4033313,24.1033315 58.8266704,23.92 58.08,23.92 L55.76,23.92 L55.76,28.22 L58.08,28.22 C58.8266704,28.22 59.4033313,28.0333352 59.81,27.66 Z M69.9,31.36 C70.4200026,31.893336 71.079996,32.16 71.88,32.16 C72.6666706,32.16 73.3033309,31.8966693 73.79,31.37 C74.2766691,30.8433307 74.52,30.1333378 74.52,29.24 L74.52,21 L78.18,21 L78.18,29.24 C78.18,30.4533394 77.9233359,31.5166621 77.41,32.43 C76.8966641,33.3433379 76.1633381,34.0466642 75.21,34.54 C74.2566619,35.0333358 73.1400064,35.28 71.86,35.28 C70.5799936,35.28 69.4566715,35.0333358 68.49,34.54 C67.5233285,34.0466642 66.7766693,33.3433379 66.25,32.43 C65.7233307,31.5166621 65.46,30.4533394 65.46,29.24 L65.46,21 L69.12,21 L69.12,29.24 C69.12,30.1200044 69.3799974,30.826664 69.9,31.36 Z M79.46,21 L91.48,21 L91.48,24.02 L87.28,24.02 L87.28,35.02 L83.62,35.02 L83.62,24.02 L79.46,24.02 L79.46,21 Z" id="INPUT" fill="#1B2B34"></path>
            </g>
            <g id="Gain-node" transform="translate(644.000000, 0.000000)">
                <rect id="Rectangle-1" stroke="#000000" x="-0.5" y="-0.5" width="123" height="57" rx="8"></rect>
                <path d="M46.18,28.08 L49.34,28.08 L49.34,33.66 C48.5933296,34.2066694 47.6766721,34.6499983 46.59,34.99 C45.5033279,35.3300017 44.4733382,35.5 43.5,35.5 C42.0866596,35.5 40.8100057,35.1833365 39.67,34.55 C38.5299943,33.9166635 37.6333366,33.0466722 36.98,31.94 C36.3266634,30.8333278 36,29.5933402 36,28.22 C36,26.8599932 36.3366633,25.6300055 37.01,24.53 C37.6833367,23.4299945 38.6099941,22.5666698 39.79,21.94 C40.9700059,21.3133302 42.2866594,21 43.74,21 C44.7800052,21 45.8199948,21.1899981 46.86,21.57 C47.9000052,21.9500019 48.7799964,22.4599968 49.5,23.1 L47.42,25.66 C46.9133308,25.1799976 46.3300033,24.8000014 45.67,24.52 C45.0099967,24.2399986 44.3600032,24.1 43.72,24.1 C42.9733296,24.1 42.300003,24.2799982 41.7,24.64 C41.099997,25.0000018 40.6266684,25.4933302 40.28,26.12 C39.9333316,26.7466698 39.76,27.4466628 39.76,28.22 C39.76,29.0066706 39.9333316,29.7166635 40.28,30.35 C40.6266684,30.9833365 41.1066636,31.4799982 41.72,31.84 C42.3333364,32.2000018 43.0133296,32.38 43.76,32.38 C44.4666702,32.38 45.2733288,32.1533356 46.18,31.7 L46.18,28.08 Z M62.06,35.24 L61.1,32.76 L55.04,32.76 L54.06,35.24 L50.3,35.24 L56.32,21.22 L60.08,21.22 L65.96,35.24 L62.06,35.24 Z M56.14,29.96 L60.02,29.96 L58.1,24.96 L56.14,29.96 Z M67.22,21.22 L70.88,21.22 L70.88,35.24 L67.22,35.24 L67.22,21.22 Z M83.18,21.22 L86.58,21.22 L86.58,35.24 L83.38,35.24 L77.02,26.86 L77.02,35.24 L73.6,35.24 L73.6,21.22 L76.82,21.22 L83.2,29.66 L83.18,21.22 Z" id="GAIN" fill="#1B2B34"></path>
            </g>
            <g id="Gain-node" transform="translate(400.000000, 140.000000)">
                <rect id="Rectangle-1" stroke="#000000" x="-0.5" y="-0.5" width="123" height="57" rx="8"></rect>
                <path d="M46.18,28.08 L49.34,28.08 L49.34,33.66 C48.5933296,34.2066694 47.6766721,34.6499983 46.59,34.99 C45.5033279,35.3300017 44.4733382,35.5 43.5,35.5 C42.0866596,35.5 40.8100057,35.1833365 39.67,34.55 C38.5299943,33.9166635 37.6333366,33.0466722 36.98,31.94 C36.3266634,30.8333278 36,29.5933402 36,28.22 C36,26.8599932 36.3366633,25.6300055 37.01,24.53 C37.6833367,23.4299945 38.6099941,22.5666698 39.79,21.94 C40.9700059,21.3133302 42.2866594,21 43.74,21 C44.7800052,21 45.8199948,21.1899981 46.86,21.57 C47.9000052,21.9500019 48.7799964,22.4599968 49.5,23.1 L47.42,25.66 C46.9133308,25.1799976 46.3300033,24.8000014 45.67,24.52 C45.0099967,24.2399986 44.3600032,24.1 43.72,24.1 C42.9733296,24.1 42.300003,24.2799982 41.7,24.64 C41.099997,25.0000018 40.6266684,25.4933302 40.28,26.12 C39.9333316,26.7466698 39.76,27.4466628 39.76,28.22 C39.76,29.0066706 39.9333316,29.7166635 40.28,30.35 C40.6266684,30.9833365 41.1066636,31.4799982 41.72,31.84 C42.3333364,32.2000018 43.0133296,32.38 43.76,32.38 C44.4666702,32.38 45.2733288,32.1533356 46.18,31.7 L46.18,28.08 Z M62.06,35.24 L61.1,32.76 L55.04,32.76 L54.06,35.24 L50.3,35.24 L56.32,21.22 L60.08,21.22 L65.96,35.24 L62.06,35.24 Z M56.14,29.96 L60.02,29.96 L58.1,24.96 L56.14,29.96 Z M67.22,21.22 L70.88,21.22 L70.88,35.24 L67.22,35.24 L67.22,21.22 Z M83.18,21.22 L86.58,21.22 L86.58,35.24 L83.38,35.24 L77.02,26.86 L77.02,35.24 L73.6,35.24 L73.6,21.22 L76.82,21.22 L83.2,29.66 L83.18,21.22 Z" id="GAIN" fill="#1B2B34"></path>
            </g>
            <g id="Output-node" transform="translate(1031.000000, 84.000000)">
                <rect id="Rectangle-1" stroke="#000000" x="-0.5" y="-0.5" width="123" height="57" rx="8"></rect>
                <path d="M30.45,21.94 C31.6033391,22.5666698 32.5099967,23.4266612 33.17,24.52 C33.8300033,25.6133388 34.16,26.8399932 34.16,28.2 C34.16,29.5733402 33.8300033,30.8133278 33.17,31.92 C32.5099967,33.0266722 31.6033391,33.8999968 30.45,34.54 C29.2966609,35.1800032 28.0066738,35.5 26.58,35.5 C25.1533262,35.5 23.8633391,35.1833365 22.71,34.55 C21.5566609,33.9166635 20.6500033,33.0433389 19.99,31.93 C19.3299967,30.8166611 19,29.5733402 19,28.2 C19,26.8399932 19.3299967,25.6133388 19.99,24.52 C20.6500033,23.4266612 21.5566609,22.5666698 22.71,21.94 C23.8633391,21.3133302 25.1533262,21 26.58,21 C28.0066738,21 29.2966609,21.3133302 30.45,21.94 Z M24.69,24.64 C24.0966637,25.0000018 23.6266684,25.4966635 23.28,26.13 C22.9333316,26.7633365 22.76,27.4599962 22.76,28.22 C22.76,28.9933372 22.9366649,29.6966635 23.29,30.33 C23.6433351,30.9633365 24.1133304,31.4633315 24.7,31.83 C25.2866696,32.1966685 25.9266632,32.38 26.62,32.38 C27.3133368,32.38 27.9499971,32.1966685 28.53,31.83 C29.1100029,31.4633315 29.566665,30.9633365 29.9,30.33 C30.233335,29.6966635 30.4,28.9933372 30.4,28.22 C30.4,27.4599962 30.233335,26.7633365 29.9,26.13 C29.566665,25.4966635 29.1100029,25.0000018 28.53,24.64 C27.9499971,24.2799982 27.3133368,24.1 26.62,24.1 C25.9266632,24.1 25.2833363,24.2799982 24.69,24.64 Z M40.18,31.58 C40.7000026,32.113336 41.359996,32.38 42.16,32.38 C42.9466706,32.38 43.5833309,32.1166693 44.07,31.59 C44.5566691,31.0633307 44.8,30.3533378 44.8,29.46 L44.8,21.22 L48.46,21.22 L48.46,29.46 C48.46,30.6733394 48.2033359,31.7366621 47.69,32.65 C47.1766641,33.5633379 46.4433381,34.2666642 45.49,34.76 C44.5366619,35.2533358 43.4200064,35.5 42.14,35.5 C40.8599936,35.5 39.7366715,35.2533358 38.77,34.76 C37.8033285,34.2666642 37.0566693,33.5633379 36.53,32.65 C36.0033307,31.7366621 35.74,30.6733394 35.74,29.46 L35.74,21.22 L39.4,21.22 L39.4,29.46 C39.4,30.3400044 39.6599974,31.046664 40.18,31.58 Z M49.74,21.22 L61.76,21.22 L61.76,24.24 L57.56,24.24 L57.56,35.24 L53.9,35.24 L53.9,24.24 L49.74,24.24 L49.74,21.22 Z M73.56,22.51 C74.5466716,23.3700043 75.04,24.5799922 75.04,26.14 C75.04,27.7933416 74.5466716,29.0766621 73.56,29.99 C72.5733284,30.9033379 71.1866756,31.36 69.4,31.36 L66.9,31.36 L66.9,35.24 L63.24,35.24 L63.24,21.22 L69.4,21.22 C71.1866756,21.22 72.5733284,21.6499957 73.56,22.51 Z M70.95,27.88 C71.3566687,27.5066648 71.56,26.9666702 71.56,26.26 C71.56,25.5799966 71.3566687,25.0566685 70.95,24.69 C70.5433313,24.3233315 69.9666704,24.14 69.22,24.14 L66.9,24.14 L66.9,28.44 L69.22,28.44 C69.9666704,28.44 70.5433313,28.2533352 70.95,27.88 Z M81.04,31.58 C81.5600026,32.113336 82.219996,32.38 83.02,32.38 C83.8066706,32.38 84.4433309,32.1166693 84.93,31.59 C85.4166691,31.0633307 85.66,30.3533378 85.66,29.46 L85.66,21.22 L89.32,21.22 L89.32,29.46 C89.32,30.6733394 89.0633359,31.7366621 88.55,32.65 C88.0366641,33.5633379 87.3033381,34.2666642 86.35,34.76 C85.3966619,35.2533358 84.2800064,35.5 83,35.5 C81.7199936,35.5 80.5966715,35.2533358 79.63,34.76 C78.6633285,34.2666642 77.9166693,33.5633379 77.39,32.65 C76.8633307,31.7366621 76.6,30.6733394 76.6,29.46 L76.6,21.22 L80.26,21.22 L80.26,29.46 C80.26,30.3400044 80.5199974,31.046664 81.04,31.58 Z M90.6,21.22 L102.62,21.22 L102.62,24.24 L98.42,24.24 L98.42,35.24 L94.76,35.24 L94.76,24.24 L90.6,24.24 L90.6,21.22 Z" id="OUTPUT" fill="#000000"></path>
            </g>
            <g id="Line" transform="translate(322.000000, 24.000000)">
                <path d="M0.2890625,47.4296875 C0.2890625,47.4296875 32.2070312,1.16796875 77.5390625,1.16796875" id="Path-52" stroke="#000000"></path>
                <polygon id="Triangle-1" fill="#000000" transform="translate(39.712723, 11.712723) rotate(-32.000000) translate(-39.712723, -11.712723) " points="31.2127226 20.2127226 31.2127226 3.21272256 48.2127226 11.7127226"></polygon>
            </g>
            <g id="Line" transform="translate(766.000000, 36.000000)">
                <path d="M0.2890625,0.4296875 C0.2890625,0.4296875 39.3398438,6.08984375 62.0820312,60.265625" id="Path-52" stroke="#000000"></path>
                <polygon id="Triangle-1" fill="#000000" transform="translate(38.712723, 23.712723) rotate(45.000000) translate(-38.712723, -23.712723) " points="30.2127226 32.2127226 30.2127226 15.2127226 47.2127226 23.7127226"></polygon>
            </g>
            <g id="Line" transform="translate(321.000000, 99.000000)">
                <path d="M0.203125,0.90625 C0.203125,0.90625 31.5703125,44.9101562 77.6523438,69.6171875" id="Path-52" stroke="#000000"></path>
                <polygon id="Triangle-1" fill="#000000" transform="translate(40.758132, 44.758132) rotate(33.000000) translate(-40.758132, -44.758132) " points="32.2581316 53.2581316 32.2581316 36.2581316 49.2581316 44.7581316"></polygon>
            </g>
            <g id="Line" transform="translate(524.000000, 128.000000)">
                <path d="M0.32421875,42.375 C0.32421875,42.375 133.859375,58.3085938 304.246094,0.53515625" id="Path-52" stroke="#000000"></path>
                <polygon id="Triangle-1" fill="#000000" transform="translate(142.500000, 37.500000) rotate(-9.000000) translate(-142.500000, -37.500000) " points="134 46 134 29 151 37.5"></polygon>
            </g>
            <g id="Gain-node" transform="translate(829.000000, 84.000000)">
                <rect id="Rectangle-1" stroke="#000000" x="-0.5" y="-0.5" width="123" height="57" rx="8"></rect>
                <path d="M46.18,28.08 L49.34,28.08 L49.34,33.66 C48.5933296,34.2066694 47.6766721,34.6499983 46.59,34.99 C45.5033279,35.3300017 44.4733382,35.5 43.5,35.5 C42.0866596,35.5 40.8100057,35.1833365 39.67,34.55 C38.5299943,33.9166635 37.6333366,33.0466722 36.98,31.94 C36.3266634,30.8333278 36,29.5933402 36,28.22 C36,26.8599932 36.3366633,25.6300055 37.01,24.53 C37.6833367,23.4299945 38.6099941,22.5666698 39.79,21.94 C40.9700059,21.3133302 42.2866594,21 43.74,21 C44.7800052,21 45.8199948,21.1899981 46.86,21.57 C47.9000052,21.9500019 48.7799964,22.4599968 49.5,23.1 L47.42,25.66 C46.9133308,25.1799976 46.3300033,24.8000014 45.67,24.52 C45.0099967,24.2399986 44.3600032,24.1 43.72,24.1 C42.9733296,24.1 42.300003,24.2799982 41.7,24.64 C41.099997,25.0000018 40.6266684,25.4933302 40.28,26.12 C39.9333316,26.7466698 39.76,27.4466628 39.76,28.22 C39.76,29.0066706 39.9333316,29.7166635 40.28,30.35 C40.6266684,30.9833365 41.1066636,31.4799982 41.72,31.84 C42.3333364,32.2000018 43.0133296,32.38 43.76,32.38 C44.4666702,32.38 45.2733288,32.1533356 46.18,31.7 L46.18,28.08 Z M62.06,35.24 L61.1,32.76 L55.04,32.76 L54.06,35.24 L50.3,35.24 L56.32,21.22 L60.08,21.22 L65.96,35.24 L62.06,35.24 Z M56.14,29.96 L60.02,29.96 L58.1,24.96 L56.14,29.96 Z M67.22,21.22 L70.88,21.22 L70.88,35.24 L67.22,35.24 L67.22,21.22 Z M83.18,21.22 L86.58,21.22 L86.58,35.24 L83.38,35.24 L77.02,26.86 L77.02,35.24 L73.6,35.24 L73.6,21.22 L76.82,21.22 L83.2,29.66 L83.18,21.22 Z" id="GAIN" fill="#1B2B34"></path>
            </g>
            <g id="Line" transform="translate(951.000000, 103.000000)">
                <path d="M0.5,8.5 L77.5064926,8.5" stroke="#000000" stroke-linecap="square"></path>
                <polygon id="Triangle-1" fill="#000000" points="31 17 31 0 48 8.5"></polygon>
            </g>
            <g id="Convolver-node" transform="translate(400.000000, 0.000000)">
                <g id="Rectangle-1">
                    <use fill="#F99157" fill-rule="evenodd" xlink:href="#path-1"></use>
                    <rect stroke="#F99157" stroke-width="1" x="-0.5" y="-0.5" width="167" height="57" rx="8"></rect>
                </g>
                <path d="M27.42,24.61 C26.7933302,24.2699983 26.1733364,24.1 25.56,24.1 C24.8533298,24.1 24.2100029,24.2766649 23.63,24.63 C23.0499971,24.9833351 22.593335,25.4699969 22.26,26.09 C21.926665,26.7100031 21.76,27.3999962 21.76,28.16 C21.76,28.9200038 21.926665,29.6099969 22.26,30.23 C22.593335,30.8500031 23.0499971,31.3366649 23.63,31.69 C24.2100029,32.0433351 24.8533298,32.22 25.56,32.22 C26.1333362,32.22 26.7333302,32.0733348 27.36,31.78 C27.9866698,31.4866652 28.5466642,31.0866692 29.04,30.58 L31.18,32.88 C30.4199962,33.680004 29.5166719,34.3166643 28.47,34.79 C27.4233281,35.2633357 26.3866718,35.5 25.36,35.5 C23.9733264,35.5 22.7200056,35.1800032 21.6,34.54 C20.4799944,33.8999968 19.6000032,33.0266722 18.96,31.92 C18.3199968,30.8133278 18,29.5733402 18,28.2 C18,26.8399932 18.3266634,25.6133388 18.98,24.52 C19.6333366,23.4266612 20.5299943,22.5666698 21.67,21.94 C22.8100057,21.3133302 24.0866596,21 25.5,21 C26.5400052,21 27.5666616,21.2166645 28.58,21.65 C29.5933384,22.0833355 30.4533298,22.6733296 31.16,23.42 L29.04,25.98 C28.5866644,25.4066638 28.0466698,24.9500017 27.42,24.61 Z M43.29,21.94 C44.4433391,22.5666698 45.3499967,23.4266612 46.01,24.52 C46.6700033,25.6133388 47,26.8399932 47,28.2 C47,29.5733402 46.6700033,30.8133278 46.01,31.92 C45.3499967,33.0266722 44.4433391,33.8999968 43.29,34.54 C42.1366609,35.1800032 40.8466738,35.5 39.42,35.5 C37.9933262,35.5 36.7033391,35.1833365 35.55,34.55 C34.3966609,33.9166635 33.4900033,33.0433389 32.83,31.93 C32.1699967,30.8166611 31.84,29.5733402 31.84,28.2 C31.84,26.8399932 32.1699967,25.6133388 32.83,24.52 C33.4900033,23.4266612 34.3966609,22.5666698 35.55,21.94 C36.7033391,21.3133302 37.9933262,21 39.42,21 C40.8466738,21 42.1366609,21.3133302 43.29,21.94 Z M37.53,24.64 C36.9366637,25.0000018 36.4666684,25.4966635 36.12,26.13 C35.7733316,26.7633365 35.6,27.4599962 35.6,28.22 C35.6,28.9933372 35.7766649,29.6966635 36.13,30.33 C36.4833351,30.9633365 36.9533304,31.4633315 37.54,31.83 C38.1266696,32.1966685 38.7666632,32.38 39.46,32.38 C40.1533368,32.38 40.7899971,32.1966685 41.37,31.83 C41.9500029,31.4633315 42.406665,30.9633365 42.74,30.33 C43.073335,29.6966635 43.24,28.9933372 43.24,28.22 C43.24,27.4599962 43.073335,26.7633365 42.74,26.13 C42.406665,25.4966635 41.9500029,25.0000018 41.37,24.64 C40.7899971,24.2799982 40.1533368,24.1 39.46,24.1 C38.7666632,24.1 38.1233363,24.2799982 37.53,24.64 Z M58.4,21.22 L61.8,21.22 L61.8,35.24 L58.6,35.24 L52.24,26.86 L52.24,35.24 L48.82,35.24 L48.82,21.22 L52.04,21.22 L58.42,29.66 L58.4,21.22 Z M63.14,21.22 L67.08,21.22 L70.58,31.36 L74.1,21.22 L77.86,21.22 L72.38,35.24 L68.58,35.24 L63.14,21.22 Z M89.73,21.94 C90.8833391,22.5666698 91.7899967,23.4266612 92.45,24.52 C93.1100033,25.6133388 93.44,26.8399932 93.44,28.2 C93.44,29.5733402 93.1100033,30.8133278 92.45,31.92 C91.7899967,33.0266722 90.8833391,33.8999968 89.73,34.54 C88.5766609,35.1800032 87.2866738,35.5 85.86,35.5 C84.4333262,35.5 83.1433391,35.1833365 81.99,34.55 C80.8366609,33.9166635 79.9300033,33.0433389 79.27,31.93 C78.6099967,30.8166611 78.28,29.5733402 78.28,28.2 C78.28,26.8399932 78.6099967,25.6133388 79.27,24.52 C79.9300033,23.4266612 80.8366609,22.5666698 81.99,21.94 C83.1433391,21.3133302 84.4333262,21 85.86,21 C87.2866738,21 88.5766609,21.3133302 89.73,21.94 Z M83.97,24.64 C83.3766637,25.0000018 82.9066684,25.4966635 82.56,26.13 C82.2133316,26.7633365 82.04,27.4599962 82.04,28.22 C82.04,28.9933372 82.2166649,29.6966635 82.57,30.33 C82.9233351,30.9633365 83.3933304,31.4633315 83.98,31.83 C84.5666696,32.1966685 85.2066632,32.38 85.9,32.38 C86.5933368,32.38 87.2299971,32.1966685 87.81,31.83 C88.3900029,31.4633315 88.846665,30.9633365 89.18,30.33 C89.513335,29.6966635 89.68,28.9933372 89.68,28.22 C89.68,27.4599962 89.513335,26.7633365 89.18,26.13 C88.846665,25.4966635 88.3900029,25.0000018 87.81,24.64 C87.2299971,24.2799982 86.5933368,24.1 85.9,24.1 C85.2066632,24.1 84.5633363,24.2799982 83.97,24.64 Z M95.26,21.22 L98.92,21.22 L98.92,32.12 L104.86,32.12 L104.86,35.24 L95.26,35.24 L95.26,21.22 Z M105.12,21.22 L109.06,21.22 L112.56,31.36 L116.08,21.22 L119.84,21.22 L114.36,35.24 L110.56,35.24 L105.12,21.22 Z M121.16,21.22 L132.22,21.22 L132.22,24.14 L124.82,24.14 L124.82,26.76 L131.5,26.76 L131.5,29.66 L124.82,29.68 L124.82,32.32 L132.42,32.32 L132.42,35.24 L121.16,35.24 L121.16,21.22 Z M143.08,35.24 L141.04,31.36 L138.32,31.36 L138.32,35.24 L134.66,35.24 L134.66,21.22 L140.96,21.22 C142.813343,21.22 144.249995,21.6499957 145.27,22.51 C146.290005,23.3700043 146.8,24.5799922 146.8,26.14 C146.8,27.1933386 146.586669,28.1033295 146.16,28.87 C145.733331,29.6366705 145.113337,30.2333312 144.3,30.66 L147.22,35.24 L143.08,35.24 Z M138.32,28.44 L140.98,28.44 C141.72667,28.44 142.303331,28.2533352 142.71,27.88 C143.116669,27.5066648 143.32,26.9666702 143.32,26.26 C143.32,25.5799966 143.116669,25.0566685 142.71,24.69 C142.303331,24.3233315 141.72667,24.14 140.98,24.14 L138.32,24.14 L138.32,28.44 Z" id="CONVOLVER" fill="#1B2B34"></path>
            </g>
            <g id="Line" transform="translate(566.000000, 19.000000)">
                <path d="M0.5,8.5 L77.5064926,8.5" stroke="#000000" stroke-linecap="square"></path>
                <polygon id="Triangle-1" fill="#000000" points="31 17 31 0 48 8.5"></polygon>
            </g>
            <g id="Gain-node" transform="translate(200.000000, 56.000000)">
                <rect id="Rectangle-1" stroke="#000000" x="-0.5" y="-0.5" width="123" height="57" rx="8"></rect>
                <path d="M46.18,28.08 L49.34,28.08 L49.34,33.66 C48.5933296,34.2066694 47.6766721,34.6499983 46.59,34.99 C45.5033279,35.3300017 44.4733382,35.5 43.5,35.5 C42.0866596,35.5 40.8100057,35.1833365 39.67,34.55 C38.5299943,33.9166635 37.6333366,33.0466722 36.98,31.94 C36.3266634,30.8333278 36,29.5933402 36,28.22 C36,26.8599932 36.3366633,25.6300055 37.01,24.53 C37.6833367,23.4299945 38.6099941,22.5666698 39.79,21.94 C40.9700059,21.3133302 42.2866594,21 43.74,21 C44.7800052,21 45.8199948,21.1899981 46.86,21.57 C47.9000052,21.9500019 48.7799964,22.4599968 49.5,23.1 L47.42,25.66 C46.9133308,25.1799976 46.3300033,24.8000014 45.67,24.52 C45.0099967,24.2399986 44.3600032,24.1 43.72,24.1 C42.9733296,24.1 42.300003,24.2799982 41.7,24.64 C41.099997,25.0000018 40.6266684,25.4933302 40.28,26.12 C39.9333316,26.7466698 39.76,27.4466628 39.76,28.22 C39.76,29.0066706 39.9333316,29.7166635 40.28,30.35 C40.6266684,30.9833365 41.1066636,31.4799982 41.72,31.84 C42.3333364,32.2000018 43.0133296,32.38 43.76,32.38 C44.4666702,32.38 45.2733288,32.1533356 46.18,31.7 L46.18,28.08 Z M62.06,35.24 L61.1,32.76 L55.04,32.76 L54.06,35.24 L50.3,35.24 L56.32,21.22 L60.08,21.22 L65.96,35.24 L62.06,35.24 Z M56.14,29.96 L60.02,29.96 L58.1,24.96 L56.14,29.96 Z M67.22,21.22 L70.88,21.22 L70.88,35.24 L67.22,35.24 L67.22,21.22 Z M83.18,21.22 L86.58,21.22 L86.58,35.24 L83.38,35.24 L77.02,26.86 L77.02,35.24 L73.6,35.24 L73.6,21.22 L76.82,21.22 L83.2,29.66 L83.18,21.22 Z" id="GAIN" fill="#1B2B34"></path>
            </g>
            <g id="Line" transform="translate(122.000000, 75.000000)">
                <path d="M0.5,8.5 L77.5064926,8.5" stroke="#000000" stroke-linecap="square"></path>
                <polygon id="Triangle-1" fill="#000000" points="31 17 31 0 48 8.5"></polygon>
            </g>
        </g>
    </g>
</svg>