<?xml version="1.0" encoding="UTF-8"?>
<svg width="1159px" height="202px" viewBox="0 0 1159 202" version="1.1" xmlns="http://www.w3.org/2000/svg" xmlns:xlink="http://www.w3.org/1999/xlink">
    <!-- Generator: Sketch 46.2 (44496) - http://www.bohemiancoding.com/sketch -->
    <title>Reverb</title>
    <desc>Created with Sketch.</desc>
    <defs>
        <rect id="path-1" x="0" y="0" width="166" height="56" rx="8"></rect>
    </defs>
    <g id="Page-1" stroke="none" stroke-width="1" fill="none" fill-rule="evenodd">
        <g id="Reverb" transform="translate(3.000000, 3.000000)">
            <g id="Input-node" transform="translate(0.000000, 56.000000)">
                <rect id="Rectangle-1" stroke="#000000" x="-0.5" y="-0.5" width="123" height="57" rx="8"></rect>
                <path d="M30,21 L33.66,21 L33.66,35.02 L30,35.02 L30,21 Z M45.96,21 L49.36,21 L49.36,35.02 L46.16,35.02 L39.8,26.64 L39.8,35.02 L36.38,35.02 L36.38,21 L39.6,21 L45.98,29.44 L45.96,21 Z M62.42,22.29 C63.4066716,23.1500043 63.9,24.3599922 63.9,25.92 C63.9,27.5733416 63.4066716,28.8566621 62.42,29.77 C61.4333284,30.6833379 60.0466756,31.14 58.26,31.14 L55.76,31.14 L55.76,35.02 L52.1,35.02 L52.1,21 L58.26,21 C60.0466756,21 61.4333284,21.4299957 62.42,22.29 Z M59.81,27.66 C60.2166687,27.2866648 60.42,26.7466702 60.42,26.04 C60.42,25.3599966 60.2166687,24.8366685 59.81,24.47 C59.4033313,24.1033315 58.8266704,23.92 58.08,23.92 L55.76,23.92 L55.76,28.22 L58.08,28.22 C58.8266704,28.22 59.4033313,28.0333352 59.81,27.66 Z M69.9,31.36 C70.4200026,31.893336 71.079996,32.16 71.88,32.16 C72.6666706,32.16 73.3033309,31.8966693 73.79,31.37 C74.2766691,30.8433307 74.52,30.1333378 74.52,29.24 L74.52,21 L78.18,21 L78.18,29.24 C78.18,30.4533394 77.9233359,31.5166621 77.41,32.43 C76.8966641,33.3433379 76.1633381,34.0466642 75.21,34.54 C74.2566619,35.0333358 73.1400064,35.28 71.86,35.28 C70.5799936,35.28 69.4566715,35.0333358 68.49,34.54 C67.5233285,34.0466642 66.7766693,33.3433379 66.25,32.43 C65.7233307,31.5166621 65.46,30.4533394 65.46,29.24 L65.46,21 L69.12,21 L69.12,29.24 C69.12,30.1200044 69.3799974,30.826664 69.9,31.36 Z M79.46,21 L91.48,21 L91.48,24.02 L87.28,24.02 L87.28,35.02 L83.62,35.02 L83.62,24.02 L79.46,24.02 L79.46,21 Z" id="INPUT" fill="#1B2B34"></path>
            </g>
            <g id="Gain-node" transform="translate(644.000000, 0.000000)">
                <rect id="Rectangle-1" stroke="#000000" x="-0.5" y="-0.5" width="123" height="57" rx="8"></rect>
                <path d="M46.18,28.08 L49.34,28.08 L49.34,33.66 C48.5933296,34.2066694 47.6766721,34.6499983 46.59,34.99 C45.5033279,35.3300017 44.4733382,35.5 43.5,35.5 C42.0866596,35.5 40.8100057,35.1833365 39.67,34.55 C38.5299943,33.9166635 37.6333366,33.0466722 36.98,31.94 C36.3266634,30.8333278 36,29.5933402 36,28.22 C36,26.8599932 36.3366633,25.6300055 37.01,24.53 C37.6833367,23.4299945 38.6099941,22.5666698 39.79,21.94 C40.9700059,21.3133302 42.2866594,21 43.74,21 C44.7800052,21 45.8199948,21.1899981 46.86,21.57 C47.9000052,21.9500019 48.7799964,22.4599968 49.5,23.1 L47.42,25.66 C46.9133308,25.1799976 46.3300033,24.8000014 45.67,24.52 C45.0099967,24.2399986 44.3600032,24.1 43.72,24.1 C42.9733296,24.1 42.300003,24.2799982 41.7,24.64 C41.099997,25.0000018 40.6266684,25.4933302 40.28,26.12 C39.9333316,26.7466698 39.76,27.4466628 39.76,28.22 C39.76,29.0066706 39.9333316,29.7166635 40.28,30.35 C40.6266684,30.9833365 41.1066636,31.4799982 41.72,31.84 C42.3333364,32.2000018 43.0133296,32.38 43.76,32.38 C44.4666702,32.38 45.2733288,32.1533356 46.18,31.7 L46.18,28.08 Z M62.06,35.24 L61.1,32.76 L55.04,32.76 L54.06,35.24 L50.3,35.24 L56.32,21.22 L60.08,21.22 L65.96,35.24 L62.06,35.24 Z M56.14,29.96 L60.02,29.96 L58.1,24.96 L56.14,29.96 Z M67.22,21.22 L70.88,21.22 L70.88,35.24 L67.22,35.24 L67.22,21.22 Z M83.18,21.22 L86.58,21.22 L86.58,35.24 L83.38,35.24 L77.02,26.86 L77.02,35.24 L73.6,35.24 L73.6,21.22 L76.82,21.22 L83.2,29.66 L83.18,21.22 Z" id="GAIN" fill="#1B2B34"></path>
            </g>
            <g id="Gain-node" transform="translate(400.000000, 140.000000)">
                <rect id="Rectangle-1" stroke="#000000" x="-0.5" y="-0.5" width="123" height="57" rx="8"></rect>
                <path d="M46.18,28.08 L49.34,28.08 L49.34,33.66 C48.5933296,34.2066694 47.6766721,34.6499983 46.59,34.99 C45.5033279,35.3300017 44.4733382,35.5 43.5,35.5 C42.0866596,35.5 40.8100057,35.1833365 39.67,34.55 C38.5299943,33.9166635 37.6333366,33.0466722 36.98,31.94 C36.3266634,30.8333278 36,29.5933402 36,28.22 C36,26.8599932 36.3366633,25.6300055 37.01,24.53 C37.6833367,23.4299945 38.6099941,22.5666698 39.79,21.94 C40.9700059,21.3133302 42.2866594,21 43.74,21 C44.7800052,21 45.8199948,21.1899981 46.86,21.57 C47.9000052,21.9500019 48.7799964,22.4599968 49.5,23.1 L47.42,25.66 C46.9133308,25.1799976 46.3300033,24.8000014 45.67,24.52 C45.0099967,24.2399986 44.3600032,24.1 43.72,24.1 C42.9733296,24.1 42.300003,24.2799982 41.7,24.64 C41.099997,25.0000018 40.6266684,25.4933302 40.28,26.12 C39.9333316,26.7466698 39.76,27.4466628 39.76,28.22 C39.76,29.0066706 39.9333316,29.7166635 40.28,30.35 C40.6266684,30.9833365 41.1066636,31.4799982 41.72,31.84 C42.3333364,32.2000018 43.0133296,32.38 43.76,32.38 C44.4666702,32.38 45.2733288,32.1533356 46.18,31.7 L46.18,28.08 Z M62.06,35.24 L61.1,32.76 L55.04,32.76 L54.06,35.24 L50.3,35.24 L56.32,21.22 L60.08,21.22 L65.96,35.24 L62.06,35.24 Z M56.14,29.96 L60.02,29.96 L58.1,24.96 L56.14,29.96 Z M67.22,21.22 L70.88,21.22 L70.88,35.24 L67.22,35.24 L67.22,21.22 Z M83.18,21.22 L86.58,21.22 L86.58,35.24 L83.38,35.24 L77.02,26.86 L77.02,35.24 L73.6,35.24 L73.6,21.22 L76.82,21.22 L83.2,29.66 L83.18,21.22 Z" id="GAIN" fill="#1B2B34"></path>
            </g>
            <g id="Output-node" transform="translate(1031.000000, 84.000000)">
                <rect id="Rectangle-1" stroke="#000000" x="-0.5" y="-0.5" width="123" height="57" rx="8"></rect>
                <path d="M20.82,28.624 C20.844,23.824 24.468,19.96 29.004,19.96 C33.54,19.96 37.164,23.824 37.212,28.624 C37.164,33.448 33.54,37.312 29.004,37.312 C24.468,37.312 20.844,33.448 20.82,28.624 Z M21.468,28.624 C21.468,33.064 24.876,36.616 29.004,36.664 C33.108,36.616 36.516,33.064 36.54,28.624 C36.516,24.16 33.108,20.584 29.004,20.584 C24.876,20.584 21.468,24.16 21.468,28.624 Z M41.46,32.248 C41.46,34.888 43.572,37 46.164,37 C48.78,37 50.916,34.888 50.916,32.248 L50.916,25.552 C50.916,25.384 50.772,25.24 50.604,25.24 C50.46,25.24 50.292,25.384 50.292,25.552 L50.292,32.248 C50.292,34.552 48.444,36.4 46.164,36.4 C43.908,36.4 42.06,34.552 42.06,32.248 L42.06,25.552 C42.06,25.384 41.916,25.24 41.772,25.24 C41.58,25.24 41.46,25.384 41.46,25.552 L41.46,32.248 Z M60.036,25.24 L58.116,25.24 L58.116,20.536 C58.116,20.368 57.972,20.224 57.804,20.224 C57.636,20.224 57.516,20.368 57.516,20.536 L57.516,25.24 L55.5,25.24 C55.332,25.24 55.188,25.384 55.188,25.552 C55.188,25.72 55.332,25.84 55.5,25.84 L57.516,25.84 L57.516,35.2 C57.516,36.208 58.332,37.024 59.34,37.024 C59.508,37.024 59.652,36.88 59.652,36.712 C59.652,36.544 59.508,36.424 59.34,36.424 C58.668,36.424 58.116,35.872 58.116,35.2 L58.116,25.84 L60.036,25.84 C60.204,25.84 60.348,25.72 60.348,25.552 C60.348,25.384 60.204,25.24 60.036,25.24 Z M66.012,41.824 L66.012,25.552 C66.012,25.36 66.132,25.24 66.324,25.24 C66.492,25.24 66.612,25.36 66.612,25.552 L66.612,28.456 C67.524,26.536 69.444,25.24 71.628,25.24 C74.796,25.24 77.292,27.832 77.292,31.048 C77.292,34.264 74.796,36.88 71.628,36.88 C69.444,36.88 67.524,35.56 66.612,33.688 L66.612,41.824 C66.612,42.016 66.492,42.136 66.324,42.136 C66.132,42.136 66.012,42.016 66.012,41.824 Z M66.612,30.832 L66.612,31.048 C66.612,33.928 68.892,36.256 71.628,36.256 C74.388,36.256 76.668,33.928 76.668,31.048 C76.668,28.192 74.388,25.84 71.628,25.84 C68.964,25.84 66.708,28.072 66.612,30.832 Z M81.612,32.248 C81.612,34.888 83.724,37 86.316,37 C88.932,37 91.068,34.888 91.068,32.248 L91.068,25.552 C91.068,25.384 90.924,25.24 90.756,25.24 C90.612,25.24 90.444,25.384 90.444,25.552 L90.444,32.248 C90.444,34.552 88.596,36.4 86.316,36.4 C84.06,36.4 82.212,34.552 82.212,32.248 L82.212,25.552 C82.212,25.384 82.068,25.24 81.924,25.24 C81.732,25.24 81.612,25.384 81.612,25.552 L81.612,32.248 Z M100.188,25.24 L98.268,25.24 L98.268,20.536 C98.268,20.368 98.124,20.224 97.956,20.224 C97.788,20.224 97.668,20.368 97.668,20.536 L97.668,25.24 L95.652,25.24 C95.484,25.24 95.34,25.384 95.34,25.552 C95.34,25.72 95.484,25.84 95.652,25.84 L97.668,25.84 L97.668,35.2 C97.668,36.208 98.484,37.024 99.492,37.024 C99.66,37.024 99.804,36.88 99.804,36.712 C99.804,36.544 99.66,36.424 99.492,36.424 C98.82,36.424 98.268,35.872 98.268,35.2 L98.268,25.84 L100.188,25.84 C100.356,25.84 100.5,25.72 100.5,25.552 C100.5,25.384 100.356,25.24 100.188,25.24 Z" id="Output" fill="#000000"></path>
            </g>
            <g id="Line" transform="translate(322.000000, 24.000000)">
                <path d="M0.2890625,47.4296875 C0.2890625,47.4296875 32.2070312,1.16796875 77.5390625,1.16796875" id="Path-52" stroke="#000000"></path>
                <polygon id="Triangle-1" fill="#000000" transform="translate(39.712723, 11.712723) rotate(-32.000000) translate(-39.712723, -11.712723) " points="31.2127226 20.2127226 31.2127226 3.21272256 48.2127226 11.7127226"></polygon>
            </g>
            <g id="Line" transform="translate(766.000000, 36.000000)">
                <path d="M0.2890625,0.4296875 C0.2890625,0.4296875 39.3398438,6.08984375 62.0820312,60.265625" id="Path-52" stroke="#000000"></path>
                <polygon id="Triangle-1" fill="#000000" transform="translate(38.712723, 23.712723) rotate(45.000000) translate(-38.712723, -23.712723) " points="30.2127226 32.2127226 30.2127226 15.2127226 47.2127226 23.7127226"></polygon>
            </g>
            <g id="Line" transform="translate(321.000000, 99.000000)">
                <path d="M0.203125,0.90625 C0.203125,0.90625 31.5703125,44.9101562 77.6523438,69.6171875" id="Path-52" stroke="#000000"></path>
                <polygon id="Triangle-1" fill="#000000" transform="translate(40.758132, 44.758132) rotate(33.000000) translate(-40.758132, -44.758132) " points="32.2581316 53.2581316 32.2581316 36.2581316 49.2581316 44.7581316"></polygon>
            </g>
            <g id="Line" transform="translate(524.000000, 128.000000)">
                <path d="M0.32421875,42.375 C0.32421875,42.375 133.859375,58.3085938 304.246094,0.53515625" id="Path-52" stroke="#000000"></path>
                <polygon id="Triangle-1" fill="#000000" transform="translate(142.500000, 37.500000) rotate(-9.000000) translate(-142.500000, -37.500000) " points="134 46 134 29 151 37.5"></polygon>
            </g>
            <g id="Gain-node" transform="translate(829.000000, 84.000000)">
                <rect id="Rectangle-1" stroke="#000000" x="-0.5" y="-0.5" width="123" height="57" rx="8"></rect>
                <path d="M46.18,28.08 L49.34,28.08 L49.34,33.66 C48.5933296,34.2066694 47.6766721,34.6499983 46.59,34.99 C45.5033279,35.3300017 44.4733382,35.5 43.5,35.5 C42.0866596,35.5 40.8100057,35.1833365 39.67,34.55 C38.5299943,33.9166635 37.6333366,33.0466722 36.98,31.94 C36.3266634,30.8333278 36,29.5933402 36,28.22 C36,26.8599932 36.3366633,25.6300055 37.01,24.53 C37.6833367,23.4299945 38.6099941,22.5666698 39.79,21.94 C40.9700059,21.3133302 42.2866594,21 43.74,21 C44.7800052,21 45.8199948,21.1899981 46.86,21.57 C47.9000052,21.9500019 48.7799964,22.4599968 49.5,23.1 L47.42,25.66 C46.9133308,25.1799976 46.3300033,24.8000014 45.67,24.52 C45.0099967,24.2399986 44.3600032,24.1 43.72,24.1 C42.9733296,24.1 42.300003,24.2799982 41.7,24.64 C41.099997,25.0000018 40.6266684,25.4933302 40.28,26.12 C39.9333316,26.7466698 39.76,27.4466628 39.76,28.22 C39.76,29.0066706 39.9333316,29.7166635 40.28,30.35 C40.6266684,30.9833365 41.1066636,31.4799982 41.72,31.84 C42.3333364,32.2000018 43.0133296,32.38 43.76,32.38 C44.4666702,32.38 45.2733288,32.1533356 46.18,31.7 L46.18,28.08 Z M62.06,35.24 L61.1,32.76 L55.04,32.76 L54.06,35.24 L50.3,35.24 L56.32,21.22 L60.08,21.22 L65.96,35.24 L62.06,35.24 Z M56.14,29.96 L60.02,29.96 L58.1,24.96 L56.14,29.96 Z M67.22,21.22 L70.88,21.22 L70.88,35.24 L67.22,35.24 L67.22,21.22 Z M83.18,21.22 L86.58,21.22 L86.58,35.24 L83.38,35.24 L77.02,26.86 L77.02,35.24 L73.6,35.24 L73.6,21.22 L76.82,21.22 L83.2,29.66 L83.18,21.22 Z" id="GAIN" fill="#1B2B34"></path>
            </g>
            <g id="Line" transform="translate(951.000000, 103.000000)">
                <path d="M0.5,8.5 L77.5064926,8.5" stroke="#000000" stroke-linecap="square"></path>
                <polygon id="Triangle-1" fill="#000000" points="31 17 31 0 48 8.5"></polygon>
            </g>
            <g id="Convolver-node" transform="translate(400.000000, 0.000000)">
                <g id="Rectangle-1">
                    <use fill="#F99157" fill-rule="evenodd" xlink:href="#path-1"></use>
                    <rect stroke="#F99157" stroke-width="1" x="-0.5" y="-0.5" width="167" height="57" rx="8"></rect>
                </g>
                <path d="M27.42,24.61 C26.7933302,24.2699983 26.1733364,24.1 25.56,24.1 C24.8533298,24.1 24.2100029,24.2766649 23.63,24.63 C23.0499971,24.9833351 22.593335,25.4699969 22.26,26.09 C21.926665,26.7100031 21.76,27.3999962 21.76,28.16 C21.76,28.9200038 21.926665,29.6099969 22.26,30.23 C22.593335,30.8500031 23.0499971,31.3366649 23.63,31.69 C24.2100029,32.0433351 24.8533298,32.22 25.56,32.22 C26.1333362,32.22 26.7333302,32.0733348 27.36,31.78 C27.9866698,31.4866652 28.5466642,31.0866692 29.04,30.58 L31.18,32.88 C30.4199962,33.680004 29.5166719,34.3166643 28.47,34.79 C27.4233281,35.2633357 26.3866718,35.5 25.36,35.5 C23.9733264,35.5 22.7200056,35.1800032 21.6,34.54 C20.4799944,33.8999968 19.6000032,33.0266722 18.96,31.92 C18.3199968,30.8133278 18,29.5733402 18,28.2 C18,26.8399932 18.3266634,25.6133388 18.98,24.52 C19.6333366,23.4266612 20.5299943,22.5666698 21.67,21.94 C22.8100057,21.3133302 24.0866596,21 25.5,21 C26.5400052,21 27.5666616,21.2166645 28.58,21.65 C29.5933384,22.0833355 30.4533298,22.6733296 31.16,23.42 L29.04,25.98 C28.5866644,25.4066638 28.0466698,24.9500017 27.42,24.61 Z M43.29,21.94 C44.4433391,22.5666698 45.3499967,23.4266612 46.01,24.52 C46.6700033,25.6133388 47,26.8399932 47,28.2 C47,29.5733402 46.6700033,30.8133278 46.01,31.92 C45.3499967,33.0266722 44.4433391,33.8999968 43.29,34.54 C42.1366609,35.1800032 40.8466738,35.5 39.42,35.5 C37.9933262,35.5 36.7033391,35.1833365 35.55,34.55 C34.3966609,33.9166635 33.4900033,33.0433389 32.83,31.93 C32.1699967,30.8166611 31.84,29.5733402 31.84,28.2 C31.84,26.8399932 32.1699967,25.6133388 32.83,24.52 C33.4900033,23.4266612 34.3966609,22.5666698 35.55,21.94 C36.7033391,21.3133302 37.9933262,21 39.42,21 C40.8466738,21 42.1366609,21.3133302 43.29,21.94 Z M37.53,24.64 C36.9366637,25.0000018 36.4666684,25.4966635 36.12,26.13 C35.7733316,26.7633365 35.6,27.4599962 35.6,28.22 C35.6,28.9933372 35.7766649,29.6966635 36.13,30.33 C36.4833351,30.9633365 36.9533304,31.4633315 37.54,31.83 C38.1266696,32.1966685 38.7666632,32.38 39.46,32.38 C40.1533368,32.38 40.7899971,32.1966685 41.37,31.83 C41.9500029,31.4633315 42.406665,30.9633365 42.74,30.33 C43.073335,29.6966635 43.24,28.9933372 43.24,28.22 C43.24,27.4599962 43.073335,26.7633365 42.74,26.13 C42.406665,25.4966635 41.9500029,25.0000018 41.37,24.64 C40.7899971,24.2799982 40.1533368,24.1 39.46,24.1 C38.7666632,24.1 38.1233363,24.2799982 37.53,24.64 Z M58.4,21.22 L61.8,21.22 L61.8,35.24 L58.6,35.24 L52.24,26.86 L52.24,35.24 L48.82,35.24 L48.82,21.22 L52.04,21.22 L58.42,29.66 L58.4,21.22 Z M63.14,21.22 L67.08,21.22 L70.58,31.36 L74.1,21.22 L77.86,21.22 L72.38,35.24 L68.58,35.24 L63.14,21.22 Z M89.73,21.94 C90.8833391,22.5666698 91.7899967,23.4266612 92.45,24.52 C93.1100033,25.6133388 93.44,26.8399932 93.44,28.2 C93.44,29.5733402 93.1100033,30.8133278 92.45,31.92 C91.7899967,33.0266722 90.8833391,33.8999968 89.73,34.54 C88.5766609,35.1800032 87.2866738,35.5 85.86,35.5 C84.4333262,35.5 83.1433391,35.1833365 81.99,34.55 C80.8366609,33.9166635 79.9300033,33.0433389 79.27,31.93 C78.6099967,30.8166611 78.28,29.5733402 78.28,28.2 C78.28,26.8399932 78.6099967,25.6133388 79.27,24.52 C79.9300033,23.4266612 80.8366609,22.5666698 81.99,21.94 C83.1433391,21.3133302 84.4333262,21 85.86,21 C87.2866738,21 88.5766609,21.3133302 89.73,21.94 Z M83.97,24.64 C83.3766637,25.0000018 82.9066684,25.4966635 82.56,26.13 C82.2133316,26.7633365 82.04,27.4599962 82.04,28.22 C82.04,28.9933372 82.2166649,29.6966635 82.57,30.33 C82.9233351,30.9633365 83.3933304,31.4633315 83.98,31.83 C84.5666696,32.1966685 85.2066632,32.38 85.9,32.38 C86.5933368,32.38 87.2299971,32.1966685 87.81,31.83 C88.3900029,31.4633315 88.846665,30.9633365 89.18,30.33 C89.513335,29.6966635 89.68,28.9933372 89.68,28.22 C89.68,27.4599962 89.513335,26.7633365 89.18,26.13 C88.846665,25.4966635 88.3900029,25.0000018 87.81,24.64 C87.2299971,24.2799982 86.5933368,24.1 85.9,24.1 C85.2066632,24.1 84.5633363,24.2799982 83.97,24.64 Z M95.26,21.22 L98.92,21.22 L98.92,32.12 L104.86,32.12 L104.86,35.24 L95.26,35.24 L95.26,21.22 Z M105.12,21.22 L109.06,21.22 L112.56,31.36 L116.08,21.22 L119.84,21.22 L114.36,35.24 L110.56,35.24 L105.12,21.22 Z M121.16,21.22 L132.22,21.22 L132.22,24.14 L124.82,24.14 L124.82,26.76 L131.5,26.76 L131.5,29.66 L124.82,29.68 L124.82,32.32 L132.42,32.32 L132.42,35.24 L121.16,35.24 L121.16,21.22 Z M143.08,35.24 L141.04,31.36 L138.32,31.36 L138.32,35.24 L134.66,35.24 L134.66,21.22 L140.96,21.22 C142.813343,21.22 144.249995,21.6499957 145.27,22.51 C146.290005,23.3700043 146.8,24.5799922 146.8,26.14 C146.8,27.1933386 146.586669,28.1033295 146.16,28.87 C145.733331,29.6366705 145.113337,30.2333312 144.3,30.66 L147.22,35.24 L143.08,35.24 Z M138.32,28.44 L140.98,28.44 C141.72667,28.44 142.303331,28.2533352 142.71,27.88 C143.116669,27.5066648 143.32,26.9666702 143.32,26.26 C143.32,25.5799966 143.116669,25.0566685 142.71,24.69 C142.303331,24.3233315 141.72667,24.14 140.98,24.14 L138.32,24.14 L138.32,28.44 Z" id="CONVOLVER" fill="#1B2B34"></path>
            </g>
            <g id="Line" transform="translate(566.000000, 19.000000)">
                <path d="M0.5,8.5 L77.5064926,8.5" stroke="#000000" stroke-linecap="square"></path>
                <polygon id="Triangle-1" fill="#000000" points="31 17 31 0 48 8.5"></polygon>
            </g>
            <g id="Gain-node" transform="translate(200.000000, 56.000000)">
                <rect id="Rectangle-1" stroke="#000000" x="-0.5" y="-0.5" width="123" height="57" rx="8"></rect>
                <path d="M46.18,28.08 L49.34,28.08 L49.34,33.66 C48.5933296,34.2066694 47.6766721,34.6499983 46.59,34.99 C45.5033279,35.3300017 44.4733382,35.5 43.5,35.5 C42.0866596,35.5 40.8100057,35.1833365 39.67,34.55 C38.5299943,33.9166635 37.6333366,33.0466722 36.98,31.94 C36.3266634,30.8333278 36,29.5933402 36,28.22 C36,26.8599932 36.3366633,25.6300055 37.01,24.53 C37.6833367,23.4299945 38.6099941,22.5666698 39.79,21.94 C40.9700059,21.3133302 42.2866594,21 43.74,21 C44.7800052,21 45.8199948,21.1899981 46.86,21.57 C47.9000052,21.9500019 48.7799964,22.4599968 49.5,23.1 L47.42,25.66 C46.9133308,25.1799976 46.3300033,24.8000014 45.67,24.52 C45.0099967,24.2399986 44.3600032,24.1 43.72,24.1 C42.9733296,24.1 42.300003,24.2799982 41.7,24.64 C41.099997,25.0000018 40.6266684,25.4933302 40.28,26.12 C39.9333316,26.7466698 39.76,27.4466628 39.76,28.22 C39.76,29.0066706 39.9333316,29.7166635 40.28,30.35 C40.6266684,30.9833365 41.1066636,31.4799982 41.72,31.84 C42.3333364,32.2000018 43.0133296,32.38 43.76,32.38 C44.4666702,32.38 45.2733288,32.1533356 46.18,31.7 L46.18,28.08 Z M62.06,35.24 L61.1,32.76 L55.04,32.76 L54.06,35.24 L50.3,35.24 L56.32,21.22 L60.08,21.22 L65.96,35.24 L62.06,35.24 Z M56.14,29.96 L60.02,29.96 L58.1,24.96 L56.14,29.96 Z M67.22,21.22 L70.88,21.22 L70.88,35.24 L67.22,35.24 L67.22,21.22 Z M83.18,21.22 L86.58,21.22 L86.58,35.24 L83.38,35.24 L77.02,26.86 L77.02,35.24 L73.6,35.24 L73.6,21.22 L76.82,21.22 L83.2,29.66 L83.18,21.22 Z" id="GAIN" fill="#1B2B34"></path>
            </g>
            <g id="Line" transform="translate(122.000000, 75.000000)">
                <path d="M0.5,8.5 L77.5064926,8.5" stroke="#000000" stroke-linecap="square"></path>
                <polygon id="Triangle-1" fill="#000000" points="31 17 31 0 48 8.5"></polygon>
            </g>
        </g>
    </g>
</svg>