<?xml version="1.0" encoding="UTF-8"?>
<svg width="532px" height="62px" viewBox="0 0 532 62" version="1.1" xmlns="http://www.w3.org/2000/svg" xmlns:xlink="http://www.w3.org/1999/xlink">
    <!-- Generator: Sketch 46.2 (44496) - http://www.bohemiancoding.com/sketch -->
    <title>volume</title>
    <desc>Created with Sketch.</desc>
    <defs>
        <rect id="path-1" x="0" y="0" width="122" height="56" rx="8"></rect>
    </defs>
    <g id="Page-1" stroke="none" stroke-width="1" fill="none" fill-rule="evenodd">
        <g id="Volume" transform="translate(3.000000, 3.000000)">
            <g id="Input-node">
                <rect id="Rectangle-1" stroke="#000000" x="-0.5" y="-0.5" width="123" height="57" rx="8"></rect>
                <path d="M31.38,20.98 L35.04,20.98 L35.04,35 L31.38,35 L31.38,20.98 Z M47.34,20.98 L50.74,20.98 L50.74,35 L47.54,35 L41.18,26.62 L41.18,35 L37.76,35 L37.76,20.98 L40.98,20.98 L47.36,29.42 L47.34,20.98 Z M63.8,22.27 C64.7866716,23.1300043 65.28,24.3399922 65.28,25.9 C65.28,27.5533416 64.7866716,28.8366621 63.8,29.75 C62.8133284,30.6633379 61.4266756,31.12 59.64,31.12 L57.14,31.12 L57.14,35 L53.48,35 L53.48,20.98 L59.64,20.98 C61.4266756,20.98 62.8133284,21.4099957 63.8,22.27 Z M61.19,27.64 C61.5966687,27.2666648 61.8,26.7266702 61.8,26.02 C61.8,25.3399966 61.5966687,24.8166685 61.19,24.45 C60.7833313,24.0833315 60.2066704,23.9 59.46,23.9 L57.14,23.9 L57.14,28.2 L59.46,28.2 C60.2066704,28.2 60.7833313,28.0133352 61.19,27.64 Z M71.28,31.34 C71.8000026,31.873336 72.459996,32.14 73.26,32.14 C74.0466706,32.14 74.6833309,31.8766693 75.17,31.35 C75.6566691,30.8233307 75.9,30.1133378 75.9,29.22 L75.9,20.98 L79.56,20.98 L79.56,29.22 C79.56,30.4333394 79.3033359,31.4966621 78.79,32.41 C78.2766641,33.3233379 77.5433381,34.0266642 76.59,34.52 C75.6366619,35.0133358 74.5200064,35.26 73.24,35.26 C71.9599936,35.26 70.8366715,35.0133358 69.87,34.52 C68.9033285,34.0266642 68.1566693,33.3233379 67.63,32.41 C67.1033307,31.4966621 66.84,30.4333394 66.84,29.22 L66.84,20.98 L70.5,20.98 L70.5,29.22 C70.5,30.1000044 70.7599974,30.806664 71.28,31.34 Z M80.84,20.98 L92.86,20.98 L92.86,24 L88.66,24 L88.66,35 L85,35 L85,24 L80.84,24 L80.84,20.98 Z" id="INPUT" fill="#1B2B34"></path>
            </g>
            <g id="Gain-node" transform="translate(202.000000, 0.000000)">
                <g id="Rectangle-1">
                    <use fill="#F99157" fill-rule="evenodd" xlink:href="#path-1"></use>
                    <rect stroke="#F99157" stroke-width="1" x="-0.5" y="-0.5" width="123" height="57" rx="8"></rect>
                </g>
                <path d="M45.93,27.84 L49.09,27.84 L49.09,33.42 C48.3433296,33.9666694 47.4266721,34.4099983 46.34,34.75 C45.2533279,35.0900017 44.2233382,35.26 43.25,35.26 C41.8366596,35.26 40.5600057,34.9433365 39.42,34.31 C38.2799943,33.6766635 37.3833366,32.8066722 36.73,31.7 C36.0766634,30.5933278 35.75,29.3533402 35.75,27.98 C35.75,26.6199932 36.0866633,25.3900055 36.76,24.29 C37.4333367,23.1899945 38.3599941,22.3266698 39.54,21.7 C40.7200059,21.0733302 42.0366594,20.76 43.49,20.76 C44.5300052,20.76 45.5699948,20.9499981 46.61,21.33 C47.6500052,21.7100019 48.5299964,22.2199968 49.25,22.86 L47.17,25.42 C46.6633308,24.9399976 46.0800033,24.5600014 45.42,24.28 C44.7599967,23.9999986 44.1100032,23.86 43.47,23.86 C42.7233296,23.86 42.050003,24.0399982 41.45,24.4 C40.849997,24.7600018 40.3766684,25.2533302 40.03,25.88 C39.6833316,26.5066698 39.51,27.2066628 39.51,27.98 C39.51,28.7666706 39.6833316,29.4766635 40.03,30.11 C40.3766684,30.7433365 40.8566636,31.2399982 41.47,31.6 C42.0833364,31.9600018 42.7633296,32.14 43.51,32.14 C44.2166702,32.14 45.0233288,31.9133356 45.93,31.46 L45.93,27.84 Z M61.81,35 L60.85,32.52 L54.79,32.52 L53.81,35 L50.05,35 L56.07,20.98 L59.83,20.98 L65.71,35 L61.81,35 Z M55.89,29.72 L59.77,29.72 L57.85,24.72 L55.89,29.72 Z M66.97,20.98 L70.63,20.98 L70.63,35 L66.97,35 L66.97,20.98 Z M82.93,20.98 L86.33,20.98 L86.33,35 L83.13,35 L76.77,26.62 L76.77,35 L73.35,35 L73.35,20.98 L76.57,20.98 L82.95,29.42 L82.93,20.98 Z" id="GAIN" fill="#1B2B34"></path>
            </g>
            <g id="Output-node" transform="translate(404.000000, 0.000000)">
                <rect id="Rectangle-1" stroke="#000000" x="-0.5" y="-0.5" width="123" height="57" rx="8"></rect>
                <path d="M30.45,21.94 C31.6033391,22.5666698 32.5099967,23.4266612 33.17,24.52 C33.8300033,25.6133388 34.16,26.8399932 34.16,28.2 C34.16,29.5733402 33.8300033,30.8133278 33.17,31.92 C32.5099967,33.0266722 31.6033391,33.8999968 30.45,34.54 C29.2966609,35.1800032 28.0066738,35.5 26.58,35.5 C25.1533262,35.5 23.8633391,35.1833365 22.71,34.55 C21.5566609,33.9166635 20.6500033,33.0433389 19.99,31.93 C19.3299967,30.8166611 19,29.5733402 19,28.2 C19,26.8399932 19.3299967,25.6133388 19.99,24.52 C20.6500033,23.4266612 21.5566609,22.5666698 22.71,21.94 C23.8633391,21.3133302 25.1533262,21 26.58,21 C28.0066738,21 29.2966609,21.3133302 30.45,21.94 Z M24.69,24.64 C24.0966637,25.0000018 23.6266684,25.4966635 23.28,26.13 C22.9333316,26.7633365 22.76,27.4599962 22.76,28.22 C22.76,28.9933372 22.9366649,29.6966635 23.29,30.33 C23.6433351,30.9633365 24.1133304,31.4633315 24.7,31.83 C25.2866696,32.1966685 25.9266632,32.38 26.62,32.38 C27.3133368,32.38 27.9499971,32.1966685 28.53,31.83 C29.1100029,31.4633315 29.566665,30.9633365 29.9,30.33 C30.233335,29.6966635 30.4,28.9933372 30.4,28.22 C30.4,27.4599962 30.233335,26.7633365 29.9,26.13 C29.566665,25.4966635 29.1100029,25.0000018 28.53,24.64 C27.9499971,24.2799982 27.3133368,24.1 26.62,24.1 C25.9266632,24.1 25.2833363,24.2799982 24.69,24.64 Z M40.18,31.58 C40.7000026,32.113336 41.359996,32.38 42.16,32.38 C42.9466706,32.38 43.5833309,32.1166693 44.07,31.59 C44.5566691,31.0633307 44.8,30.3533378 44.8,29.46 L44.8,21.22 L48.46,21.22 L48.46,29.46 C48.46,30.6733394 48.2033359,31.7366621 47.69,32.65 C47.1766641,33.5633379 46.4433381,34.2666642 45.49,34.76 C44.5366619,35.2533358 43.4200064,35.5 42.14,35.5 C40.8599936,35.5 39.7366715,35.2533358 38.77,34.76 C37.8033285,34.2666642 37.0566693,33.5633379 36.53,32.65 C36.0033307,31.7366621 35.74,30.6733394 35.74,29.46 L35.74,21.22 L39.4,21.22 L39.4,29.46 C39.4,30.3400044 39.6599974,31.046664 40.18,31.58 Z M49.74,21.22 L61.76,21.22 L61.76,24.24 L57.56,24.24 L57.56,35.24 L53.9,35.24 L53.9,24.24 L49.74,24.24 L49.74,21.22 Z M73.56,22.51 C74.5466716,23.3700043 75.04,24.5799922 75.04,26.14 C75.04,27.7933416 74.5466716,29.0766621 73.56,29.99 C72.5733284,30.9033379 71.1866756,31.36 69.4,31.36 L66.9,31.36 L66.9,35.24 L63.24,35.24 L63.24,21.22 L69.4,21.22 C71.1866756,21.22 72.5733284,21.6499957 73.56,22.51 Z M70.95,27.88 C71.3566687,27.5066648 71.56,26.9666702 71.56,26.26 C71.56,25.5799966 71.3566687,25.0566685 70.95,24.69 C70.5433313,24.3233315 69.9666704,24.14 69.22,24.14 L66.9,24.14 L66.9,28.44 L69.22,28.44 C69.9666704,28.44 70.5433313,28.2533352 70.95,27.88 Z M81.04,31.58 C81.5600026,32.113336 82.219996,32.38 83.02,32.38 C83.8066706,32.38 84.4433309,32.1166693 84.93,31.59 C85.4166691,31.0633307 85.66,30.3533378 85.66,29.46 L85.66,21.22 L89.32,21.22 L89.32,29.46 C89.32,30.6733394 89.0633359,31.7366621 88.55,32.65 C88.0366641,33.5633379 87.3033381,34.2666642 86.35,34.76 C85.3966619,35.2533358 84.2800064,35.5 83,35.5 C81.7199936,35.5 80.5966715,35.2533358 79.63,34.76 C78.6633285,34.2666642 77.9166693,33.5633379 77.39,32.65 C76.8633307,31.7366621 76.6,30.6733394 76.6,29.46 L76.6,21.22 L80.26,21.22 L80.26,29.46 C80.26,30.3400044 80.5199974,31.046664 81.04,31.58 Z M90.6,21.22 L102.62,21.22 L102.62,24.24 L98.42,24.24 L98.42,35.24 L94.76,35.24 L94.76,24.24 L90.6,24.24 L90.6,21.22 Z" id="OUTPUT" fill="#1B2B34"></path>
            </g>
            <g id="Line" transform="translate(123.000000, 19.000000)">
                <path d="M0.5,8.5 L77.5064926,8.5" stroke="#000000" stroke-linecap="square"></path>
                <polygon id="Triangle-1" fill="#000000" points="31 17 31 0 48 8.5"></polygon>
            </g>
            <g id="Line" transform="translate(324.000000, 19.000000)">
                <path d="M0.5,8.5 L77.5064926,8.5" stroke="#000000" stroke-linecap="square"></path>
                <polygon id="Triangle-1" fill="#000000" points="31 17 31 0 48 8.5"></polygon>
            </g>
        </g>
    </g>
</svg>